<?xml version="1.0" encoding="UTF-8"?>
<svg width="24px" height="24px" viewBox="0 0 24 24" version="1.1" xmlns="http://www.w3.org/2000/svg" xmlns:xlink="http://www.w3.org/1999/xlink">
    <!-- Generator: Sketch 59 (86127) - https://sketch.com -->
    <title>art</title>
    <desc>Created with Sketch.</desc>
    <g id="Tripbee" stroke="none" stroke-width="1" fill="none" fill-rule="evenodd">
        <g id="Artboard" transform="translate(-40.000000, -98.000000)" fill="#29424C" fill-rule="nonzero">
            <path d="M59.8042602,98 C60.3257035,98 60.7484168,98.4227133 60.7484168,98.9441566 L60.7484168,98.9441566 L60.9971215,103.370178 C62.8492913,105.091926 63.9160578,107.496727 63.9493382,110.025331 C63.9493382,110.537743 63.9063143,111.04925 63.82038,111.554404 C63.5903983,112.724884 62.7329169,113.67272 61.5912493,114.018423 L61.5912493,114.018423 L61.646517,115.027058 C61.6487047,115.060797 61.6487047,115.094643 61.646517,115.128382 C61.6471487,115.614037 61.4510947,116.079249 61.1030512,116.417962 C61.7301152,116.846242 62.1057326,117.556124 62.1070812,118.315486 C62.1070812,119.582038 61.029361,122 59.343696,122 C59.0893334,122 58.8831318,121.793798 58.8831318,121.539436 C58.8869888,120.883053 58.6302445,120.251959 58.1692573,119.784686 C57.7728029,119.394264 57.5349107,118.870901 57.5014393,118.315486 C57.5027878,117.556124 57.8784053,116.846242 58.5054692,116.417962 C58.1574257,116.079249 57.9613718,115.614037 57.9620035,115.128382 C57.9598157,115.094643 57.9598157,115.060797 57.9620035,115.027058 L57.9620035,115.027058 L58.0080599,114.170409 L54.7841105,114.170409 C53.4868614,114.170409 52.4352332,115.222037 52.4352332,116.519286 C52.443587,117.533245 51.9744194,118.492053 51.1686816,119.107657 C50.5967849,119.547079 49.8956585,119.785106 49.1744387,119.784686 C48.8755519,119.785954 48.5779406,119.745653 48.2901554,119.66494 C43.3252735,118.315486 40,114.43293 40,110.025331 C40.0370315,107.448177 41.1410103,105.001747 43.0489349,103.268854 C43.1690519,103.155319 43.3406148,103.11449 43.4989976,103.161747 C43.6573804,103.209003 43.778521,103.337167 43.8167869,103.497959 C43.8550528,103.65875 43.8046305,103.827743 43.6845135,103.941278 C41.9594501,105.49827 40.958591,107.701828 40.9211284,110.025331 C40.9211284,114.009211 43.974669,117.527922 48.5204375,118.766839 C49.2365212,118.966672 50.0049222,118.816407 50.5929764,118.361543 C51.1728402,117.926645 51.5141048,117.244116 51.5141048,116.519286 C51.5191648,114.715412 52.9802363,113.25434 54.7841105,113.24928 L54.7841105,113.24928 L58.0633276,113.24928 L58.6482441,102.693149 C56.6431823,101.455099 54.3311371,100.804088 51.974669,100.814047 C50.1285735,100.807255 48.3028721,101.200048 46.6229131,101.965458 C46.3914431,102.07229 46.117195,101.971251 46.0103627,101.739781 C45.9035304,101.508311 46.0045692,101.234063 46.2360391,101.127231 C48.0384327,100.309527 49.9954662,99.8885919 51.974669,99.8929188 C54.3338058,99.8850402 56.654367,100.49137 58.7081174,101.652274 L58.7081174,101.652274 L58.8601036,98.9441566 C58.8601036,98.4227133 59.2828169,98 59.8042602,98 Z M59.8042602,116.933794 C59.0411725,116.933794 58.4225676,117.552399 58.4225676,118.315486 C58.4225676,118.624064 58.5883708,118.845135 58.8831318,119.204375 C59.341592,119.696164 59.6472162,120.310613 59.7628094,120.972942 C60.5641911,120.56304 61.1859528,119.09384 61.1859528,118.315486 C61.1859528,117.552399 60.567348,116.933794 59.8042602,116.933794 Z M45.793844,112.69339 C46.241931,112.306406 46.8539369,112.16931 47.4242948,112.328152 C48.6590923,112.645591 49.5652907,113.698839 49.6948762,114.967185 C49.7565918,115.553441 49.5340247,116.133827 49.0961428,116.528497 C48.7721099,116.802448 48.3597867,116.949706 47.935521,116.943005 C47.7805989,116.943224 47.6261336,116.926203 47.4749568,116.892343 C46.2342997,116.581844 45.3221101,115.525916 45.1951641,114.25331 C45.1210365,113.665906 45.3457569,113.080374 45.793844,112.69339 Z M46.9591249,113.17559 C46.7544257,113.168855 46.5544108,113.237713 46.3972366,113.369027 C46.1786957,113.574479 46.0738762,113.873472 46.1162925,114.170409 C46.1500094,114.601441 46.3248278,115.009351 46.6137018,115.331031 C46.8851994,115.659311 47.254895,115.891784 47.6683938,115.994243 C47.9561776,116.074042 48.2647263,116.014378 48.502015,115.833045 L48.502015,115.833045 L48.502015,115.814623 C48.7200255,115.608414 48.8276292,115.311223 48.7921704,115.013241 C48.7539005,114.587942 48.5776027,114.186824 48.2901554,113.871042 C48.0178957,113.541431 47.6462853,113.30877 47.2308578,113.20783 C47.1414982,113.188546 47.050516,113.177751 46.9591249,113.17559 Z M59.3160622,98.9856074 L59.7766264,99.0086356 L58.8831318,115.128382 C58.8831318,115.614965 59.2762329,116.010131 59.7628094,116.012666 L59.7628094,116.012666 L59.8411054,116.012666 C60.3241362,116.012666 60.7178412,115.625171 60.7253886,115.142199 L60.7253886,115.142199 L60.7253886,115.091537 L59.8318941,99.0086356 L59.3160622,98.9856074 Z M61.0616005,104.830167 L61.5221647,113.074266 C62.2315865,112.783221 62.7496006,112.15815 62.9038572,111.407024 C63.3162884,109.048931 62.6389671,106.630894 61.0616005,104.830167 L61.0616005,104.830167 Z M54.507772,107.261946 C55.9067662,107.261946 57.0408751,108.396055 57.0408751,109.795049 C57.0408751,111.194043 55.9067662,112.328152 54.507772,112.328152 C53.1087778,112.328152 51.974669,111.194043 51.974669,109.795049 C51.9772038,108.397106 53.1098291,107.264481 54.507772,107.261946 Z M44.2614035,106.989888 L44.398388,106.994819 C44.9847354,107.051638 45.5085504,107.385442 45.8077145,107.892919 C46.1363963,108.424429 46.2834848,109.048343 46.2268279,109.670697 C46.1301094,111.010938 45.208981,112.051813 44.1450777,112.051813 L44.1450777,112.051813 L44.039148,112.051813 C43.4536843,111.99601 42.9300484,111.664032 42.6298215,111.158319 C42.3029019,110.625955 42.1544572,110.003133 42.2061025,109.380541 C42.302821,107.985032 43.2976396,106.907311 44.398388,106.994819 Z M54.507772,108.183074 C53.617503,108.183074 52.8957974,108.90478 52.8957974,109.795049 C52.8957974,110.685318 53.617503,111.407024 54.507772,111.407024 C55.398041,111.407024 56.1197467,110.685318 56.1197467,109.795049 C56.1197467,108.90478 55.398041,108.183074 54.507772,108.183074 Z M44.3431203,107.920553 C43.7489925,107.869891 43.1917098,108.574554 43.1272309,109.44502 C43.08569,109.86952 43.182632,110.296064 43.4035694,110.66091 C43.5504644,110.919062 43.8128275,111.090542 44.1082326,111.121474 C44.706966,111.162925 45.2596431,110.462867 45.324122,109.592401 C45.3639916,109.169472 45.2671329,108.744908 45.0477835,108.381117 C44.9008885,108.122964 44.6385254,107.951485 44.3431203,107.920553 Z M47.1203224,103.052389 C47.7012354,102.802021 48.3477429,102.747068 48.9625792,102.895797 C49.536895,103.022784 50.0160508,103.416377 50.2521589,103.955095 C50.675878,104.986759 49.9712147,106.257916 48.681635,106.801382 C48.3111088,106.949499 47.9154362,107.024567 47.5164076,107.022453 C47.2942362,107.022997 47.0729066,106.995138 46.8578008,106.939551 C46.283485,106.812564 45.8043292,106.418972 45.5682211,105.880253 C45.144502,104.853195 45.8491652,103.577432 47.1203224,103.052389 Z M48.7507196,103.789292 C48.3289668,103.686329 47.8849288,103.726844 47.4887737,103.904433 C46.6827864,104.236039 46.1945884,104.982153 46.4202648,105.53483 C46.5461383,105.807573 46.7970958,106.001808 47.0926885,106.055268 C47.5059311,106.148667 47.9381627,106.108346 48.3270006,105.940127 C49.1375936,105.60852 49.6257916,104.857801 49.4231434,104.305124 C49.296106,104.034156 49.0453478,103.841793 48.7507196,103.789292 Z M53.8952216,101.979275 C55.2953368,101.979275 56.4283247,102.900403 56.4283247,104.001151 C56.4283247,105.1019 55.2907311,106.023028 53.8952216,106.023028 C52.4997121,106.023028 51.3621186,105.1019 51.3621186,104.001151 C51.3621186,102.900403 52.5135291,101.979275 53.8952216,101.979275 Z M53.8952216,102.900403 C53.0247553,102.900403 52.283247,103.407024 52.283247,104.001151 C52.283247,104.595279 53.0247553,105.1019 53.8952216,105.1019 C54.7702936,105.1019 55.5071963,104.599885 55.5071963,104.001151 C55.5071963,103.402418 54.765688,102.900403 53.8952216,102.900403 Z M44.6470927,102.006908 C44.8633009,101.872096 45.1478591,101.938081 45.2826713,102.154289 C45.4174834,102.370497 45.3514989,102.655055 45.1352907,102.789868 L45.1352907,102.789868 L45.1030512,102.812896 L45.015544,102.863558 C44.9467101,102.902569 44.8689871,102.923189 44.7898676,102.923431 C44.580989,102.922795 44.3986919,102.781668 44.3457462,102.57961 C44.2928006,102.377553 44.3824649,102.165163 44.5641911,102.062176 L44.5641911,102.062176 Z" id="art"></path>
        </g>
    </g>
</svg>