<?xml version="1.0" encoding="UTF-8"?>
<svg width="32px" height="25px" viewBox="0 0 32 25" version="1.1" xmlns="http://www.w3.org/2000/svg" xmlns:xlink="http://www.w3.org/1999/xlink">
    <!-- Generator: Sketch 59 (86127) - https://sketch.com -->
    <title>books</title>
    <desc>Created with Sketch.</desc>
    <g id="Page-1" stroke="none" stroke-width="1" fill="none" fill-rule="evenodd">
        <g id="Artboard" transform="translate(-26.000000, -19.000000)" fill="#29424C" fill-rule="nonzero">
            <path d="M58.0212246,24.3072231 C58.0212246,21.8032103 56.1631804,19.8 53.9195044,19.8 L30.5361933,19.8 C30.2206764,19.8 29.9051594,19.9926164 29.7649297,20.3393258 C29.6246999,20.647512 29.6597574,21.0712681 29.870102,21.340931 C30.5712507,22.188443 31.8683759,24.4613162 29.870102,27.3120385 L26.9252772,27.3120385 C26.6097603,27.3120385 26.2942433,27.5046549 26.1540136,27.8513644 C26.0137838,28.1595506 26.0488412,28.5833066 26.2591859,28.8529695 C26.9252772,29.7004815 28.2574598,31.9733547 26.189071,34.824077 C25.9787264,35.09374 25.9787264,35.4789727 26.1189561,35.7871589 C26.2591859,36.0953451 26.5747028,36.3264848 26.8902198,36.3264848 L29.9051594,36.3264848 C30.5712507,37.1739968 31.8683759,39.44687 29.8350445,42.2975923 C29.6246999,42.5672552 29.6246999,42.952488 29.7649297,43.2606742 C29.9051594,43.5688604 30.2206764,43.8 30.5361933,43.8 L53.9195044,43.8 C56.1982378,43.8 58.0212246,41.7582665 58.0212246,39.2927769 C58.0212246,36.788764 56.1631804,34.7855538 53.9195044,34.7855538 L53.3585854,34.7855538 C53.9896193,33.976565 54.3752511,32.9749599 54.3752511,31.8192616 C54.3752511,30.6635634 53.9896193,29.6619583 53.3585854,28.8529695 L53.8844469,28.8529695 C56.1631804,28.8529695 58.0212246,26.811236 58.0212246,24.3072231 Z M31.6229739,21.340931 L53.9195044,21.340931 C55.4269742,21.340931 56.6189271,22.6892456 56.6189271,24.3072231 C56.6189271,25.9637239 55.3919168,27.2735152 53.9195044,27.2735152 L50.2735308,27.2735152 L49.1867503,27.2735152 L49.1867503,23.7678973 C49.1867503,23.3441413 48.8712333,22.9974318 48.4856015,22.9974318 L43.8229623,22.9974318 C43.4373304,22.9974318 43.1218135,23.3441413 43.1218135,23.7678973 L43.1218135,27.2735152 L31.552859,27.2735152 C32.8850416,24.7695024 32.2540078,22.612199 31.6229739,21.340931 Z M47.7844527,24.5383628 L47.7844527,29.4693419 L46.5574424,28.5833066 C46.4522701,28.50626 46.3120404,28.4677368 46.1718106,28.4677368 C46.0315809,28.4677368 45.8913511,28.50626 45.7861788,28.5833066 L44.5591685,29.4693419 L44.5591685,24.5383628 L47.7844527,24.5383628 Z M56.6189271,39.2927769 C56.6189271,40.9492777 55.3919168,42.259069 53.9195044,42.259069 L31.552859,42.259069 C32.8850416,39.7550562 32.2540078,37.5977528 31.6229739,36.3264848 L50.3085883,36.3264848 C50.3787032,36.3264848 50.4137606,36.3264848 50.4838755,36.3264848 L53.9545618,36.3264848 C55.3919168,36.2879615 56.6189271,37.6362761 56.6189271,39.2927769 Z M52.9729536,31.8192616 C52.9729536,33.3987159 51.8511155,34.6699839 50.448818,34.7855538 L30.5361933,34.7855538 C30.5011359,34.7855538 30.5011359,34.7855538 30.4660784,34.7855538 L27.9068855,34.7855538 C29.2390681,32.2815409 28.6080342,30.1242376 27.9419429,28.8529695 L30.4660784,28.8529695 L43.0867561,28.8529695 L43.0867561,30.894703 C43.0867561,31.164366 43.2269858,31.4340289 43.4373304,31.588122 C43.6476751,31.7422151 43.9281346,31.7036918 44.1384792,31.5495987 L46.0666383,30.1627608 L47.9947974,31.5495987 C48.0999697,31.6266453 48.2401994,31.6651685 48.3804292,31.6651685 C48.4856015,31.6651685 48.6258313,31.6266453 48.7310036,31.588122 C48.9413482,31.4340289 49.081578,31.2028892 49.081578,30.894703 L49.081578,28.8529695 L50.1683585,28.8529695 C51.7810007,28.8529695 52.9729536,30.1627608 52.9729536,31.8192616 Z M41.6494011,39.2927769 C41.6494011,39.7165329 41.3338842,40.0632424 40.9482524,40.0632424 L39.3356102,40.0632424 C38.9499784,40.0632424 38.6344615,39.7165329 38.6344615,39.2927769 C38.6344615,38.8690209 38.9499784,38.5223114 39.3356102,38.5223114 L40.9131949,38.5223114 C41.3338842,38.5223114 41.6494011,38.8690209 41.6494011,39.2927769 Z M50.6591627,39.2927769 C50.6591627,38.8690209 50.9746796,38.5223114 51.3603114,38.5223114 L52.9378961,38.5223114 C53.3235279,38.5223114 53.6390449,38.8690209 53.6390449,39.2927769 C53.6390449,39.7165329 53.3235279,40.0632424 52.9378961,40.0632424 L51.3603114,40.0632424 C50.9746796,40.0632424 50.6591627,39.7165329 50.6591627,39.2927769 Z M32.5344673,23.7678973 C32.5344673,23.3441413 32.8499842,22.9974318 33.235616,22.9974318 L41.4039991,22.9974318 C41.7896309,22.9974318 42.1051478,23.3441413 42.1051478,23.7678973 C42.1051478,24.1916533 41.7896309,24.5383628 41.4039991,24.5383628 L33.235616,24.5383628 C32.8499842,24.5383628 32.5344673,24.1916533 32.5344673,23.7678973 Z M50.0982437,23.7678973 C50.0982437,23.3441413 50.4137606,22.9974318 50.7993924,22.9974318 L52.4120346,22.9974318 C52.7976664,22.9974318 53.1131833,23.3441413 53.1131833,23.7678973 C53.1131833,24.1916533 52.7976664,24.5383628 52.4120346,24.5383628 L50.7993924,24.5383628 C50.4137606,24.5383628 50.0982437,24.1916533 50.0982437,23.7678973 Z M49.1867503,39.2927769 C49.1867503,39.7165329 48.8712333,40.0632424 48.4856015,40.0632424 L42.7361817,40.0632424 C42.3505499,40.0632424 42.0350329,39.7165329 42.0350329,39.2927769 C42.0350329,38.8690209 42.3505499,38.5223114 42.7361817,38.5223114 L48.4856015,38.5223114 C48.8712333,38.5223114 49.1867503,38.8690209 49.1867503,39.2927769 Z" id="books"></path>
        </g>
    </g>
</svg>