<?xml version="1.0" encoding="UTF-8"?>
<svg width="35px" height="27px" viewBox="0 0 35 27" version="1.1" xmlns="http://www.w3.org/2000/svg" xmlns:xlink="http://www.w3.org/1999/xlink">
    <!-- Generator: Sketch 59 (86127) - https://sketch.com -->
    <title>books</title>
    <desc>Created with Sketch.</desc>
    <g id="Tripbee" stroke="none" stroke-width="1" fill="none" fill-rule="evenodd">
        <g id="Artboard" transform="translate(-26.000000, -19.000000)" fill="#29424C" fill-rule="nonzero">
            <path d="M60.6878913,24.682825 C60.6878913,21.9701445 58.6750101,19.8 56.244361,19.8 L30.9124407,19.8 C30.5706307,19.8 30.2288207,20.0086677 30.0769051,20.3842697 C29.9249895,20.718138 29.9629684,21.1772071 30.1908418,21.4693419 C30.9504196,22.3874799 32.3556386,24.8497592 30.1908418,27.9380417 L27.0006149,27.9380417 C26.6588049,27.9380417 26.3169949,28.1467095 26.1650793,28.5223114 C26.0131637,28.8561798 26.0511426,29.3152488 26.279016,29.6073836 C27.0006149,30.5255217 28.4438128,32.987801 26.2030582,36.0760835 C25.9751849,36.3682183 25.9751849,36.7855538 26.1271004,37.1194222 C26.279016,37.4532905 26.620826,37.7036918 26.962636,37.7036918 L30.2288207,37.7036918 C30.9504196,38.6218299 32.3556386,41.0841091 30.1528629,44.1723917 C29.9249895,44.4645265 29.9249895,44.881862 30.0769051,45.2157303 C30.2288207,45.5495987 30.5706307,45.8 30.9124407,45.8 L56.244361,45.8 C58.7129889,45.8 60.6878913,43.588122 60.6878913,40.917175 C60.6878913,38.2044944 58.6750101,36.0343499 56.244361,36.0343499 L55.6366988,36.0343499 C56.3203188,35.1579454 56.7380866,34.0728732 56.7380866,32.8208668 C56.7380866,31.5688604 56.3203188,30.4837881 55.6366988,29.6073836 L56.2063821,29.6073836 C58.6750101,29.6073836 60.6878913,27.3955056 60.6878913,24.682825 Z M32.0897863,21.4693419 L56.244361,21.4693419 C57.8774533,21.4693419 59.1687356,22.9300161 59.1687356,24.682825 C59.1687356,26.4773676 57.8394745,27.8963082 56.244361,27.8963082 L52.2945564,27.8963082 L51.1172107,27.8963082 L51.1172107,24.0985554 C51.1172107,23.6394864 50.7754007,23.2638844 50.3576329,23.2638844 L45.3064404,23.2638844 C44.8886726,23.2638844 44.5468626,23.6394864 44.5468626,24.0985554 L44.5468626,27.8963082 L32.0138285,27.8963082 C33.4570264,25.1836276 32.7734064,22.846549 32.0897863,21.4693419 Z M49.5980551,24.9332263 L49.5980551,30.2751204 L48.2687939,29.3152488 C48.1548572,29.2317817 48.0029417,29.1900482 47.8510261,29.1900482 C47.6991105,29.1900482 47.547195,29.2317817 47.4332583,29.3152488 L46.1039971,30.2751204 L46.1039971,24.9332263 L49.5980551,24.9332263 Z M59.1687356,40.917175 C59.1687356,42.7117175 57.8394745,44.1306581 56.244361,44.1306581 L32.0138285,44.1306581 C33.4570264,41.4179775 32.7734064,39.0808989 32.0897863,37.7036918 L52.3325353,37.7036918 C52.408493,37.7036918 52.4464719,37.7036918 52.5224297,37.7036918 L56.2823399,37.7036918 C57.8394745,37.6619583 59.1687356,39.1226324 59.1687356,40.917175 Z M55.218931,32.8208668 C55.218931,34.5319422 54.0036065,35.9091493 52.4844508,36.0343499 L30.9124407,36.0343499 C30.8744618,36.0343499 30.8744618,36.0343499 30.8364829,36.0343499 L28.0640239,36.0343499 C29.5072217,33.3216693 28.8236017,30.9845907 28.1020028,29.6073836 L30.8364829,29.6073836 L44.5088837,29.6073836 L44.5088837,31.8192616 C44.5088837,32.1113965 44.6607993,32.4035313 44.8886726,32.5704655 C45.1165459,32.7373997 45.4203771,32.6956661 45.6482504,32.5287319 L47.7370894,31.0263242 L49.8259284,32.5287319 C49.9398651,32.612199 50.0917807,32.6539326 50.2436962,32.6539326 C50.3576329,32.6539326 50.5095485,32.612199 50.6234852,32.5704655 C50.8513585,32.4035313 51.0032741,32.15313 51.0032741,31.8192616 L51.0032741,29.6073836 L52.1806197,29.6073836 C53.9276487,29.6073836 55.218931,31.0263242 55.218931,32.8208668 Z M42.9517492,40.917175 C42.9517492,41.376244 42.6099391,41.7518459 42.1921713,41.7518459 L40.4451423,41.7518459 C40.0273745,41.7518459 39.6855645,41.376244 39.6855645,40.917175 C39.6855645,40.4581059 40.0273745,40.082504 40.4451423,40.082504 L42.1541924,40.082504 C42.6099391,40.082504 42.9517492,40.4581059 42.9517492,40.917175 Z M52.7123242,40.917175 C52.7123242,40.4581059 53.0541342,40.082504 53.471902,40.082504 L55.1809521,40.082504 C55.5987199,40.082504 55.9405299,40.4581059 55.9405299,40.917175 C55.9405299,41.376244 55.5987199,41.7518459 55.1809521,41.7518459 L53.471902,41.7518459 C53.0541342,41.7518459 52.7123242,41.376244 52.7123242,40.917175 Z M33.0772375,24.0985554 C33.0772375,23.6394864 33.4190475,23.2638844 33.8368153,23.2638844 L42.6858969,23.2638844 C43.1036647,23.2638844 43.4454747,23.6394864 43.4454747,24.0985554 C43.4454747,24.5576244 43.1036647,24.9332263 42.6858969,24.9332263 L33.8368153,24.9332263 C33.4190475,24.9332263 33.0772375,24.5576244 33.0772375,24.0985554 Z M52.1046619,24.0985554 C52.1046619,23.6394864 52.4464719,23.2638844 52.8642397,23.2638844 L54.6112687,23.2638844 C55.0290365,23.2638844 55.3708465,23.6394864 55.3708465,24.0985554 C55.3708465,24.5576244 55.0290365,24.9332263 54.6112687,24.9332263 L52.8642397,24.9332263 C52.4464719,24.9332263 52.1046619,24.5576244 52.1046619,24.0985554 Z M51.1172107,40.917175 C51.1172107,41.376244 50.7754007,41.7518459 50.3576329,41.7518459 L44.1290948,41.7518459 C43.711327,41.7518459 43.369517,41.376244 43.369517,40.917175 C43.369517,40.4581059 43.711327,40.082504 44.1290948,40.082504 L50.3576329,40.082504 C50.7754007,40.082504 51.1172107,40.4581059 51.1172107,40.917175 Z" id="books"></path>
        </g>
    </g>
</svg>