<?xml version="1.0" encoding="UTF-8"?>
<svg width="15px" height="23px" viewBox="0 0 15 23" version="1.1" xmlns="http://www.w3.org/2000/svg" xmlns:xlink="http://www.w3.org/1999/xlink">
    <!-- Generator: Sketch 59 (86127) - https://sketch.com -->
    <title>bottle</title>
    <desc>Created with Sketch.</desc>
    <g id="Tripbee" stroke="none" stroke-width="1" fill="none" fill-rule="evenodd">
        <g id="Artboard" transform="translate(-30.000000, -60.000000)" fill="#29424C" fill-rule="nonzero">
            <path d="M42.1908213,66.5225443 C41.586205,66.5225443 40.773752,65.8140097 40.6603865,65.2849705 C41.5673108,64.9070853 41.8861514,64.0757381 41.8861514,63.1688137 L41.8861514,62.4130435 C41.8861514,61.128234 41.2555556,60.5 39.9707461,60.5 L35.4361245,60.5 C34.1513151,60.5 33.5254428,61.128234 33.5254428,62.4130435 L33.5254428,63.1688137 C33.5254428,64.0757381 33.8371981,64.9070853 34.7441224,65.2849705 C34.7512077,66.168277 33.7261943,66.5225443 33.1215781,66.5225443 C31.9170692,66.5225443 30.5,67.4341922 30.5,69.0968867 L30.5,78.9219002 C30.5,81.0380569 31.8084273,82.5 33.924584,82.5 L41.4822866,82.5 C43.5984434,82.5 44.8832528,80.9435856 44.8832528,78.8274289 L44.8832528,69.0024155 C44.8832528,67.3397209 43.6078905,66.5225443 42.1908213,66.5225443 Z M31.6572732,70.405314 L43.7495974,70.405314 L43.7495974,77.8449275 L31.6572732,77.8449275 L31.6572732,70.405314 Z M34.6803543,62.4130435 C34.6803543,61.9595813 34.9826624,61.6572732 35.4361245,61.6572732 L39.9707461,61.6572732 C40.4242083,61.6572732 40.7265164,61.9595813 40.7265164,62.4130435 L40.7265164,63.5254428 C40.7265164,63.978905 40.4242083,64.2764895 39.9707461,64.2764895 L35.4361245,64.2764895 C34.9826624,64.2764895 34.6803543,63.978905 34.6803543,63.5254428 L34.6803543,62.4130435 Z M33.1688137,67.7034353 C34.5292002,67.7034353 35.7384326,66.796511 36.1163178,65.4361245 L39.3661299,65.4361245 C39.744015,66.796511 40.8776704,67.7034353 42.3136339,67.7034353 C43.1449812,67.7034353 43.8251744,68.3836286 43.8251744,69.2149758 L31.6572732,69.2149758 C31.6572732,68.3836286 32.3374665,67.7034353 33.1688137,67.7034353 Z M41.4822866,81.3073001 L33.924584,81.3073001 C32.6397746,81.3073001 31.6572732,80.3247987 31.6572732,79.0399893 L43.7495974,79.0399893 C43.7495974,80.3247987 42.7670961,81.3073001 41.4822866,81.3073001 Z M40.3486312,74.1274826 C40.3486312,74.5809447 40.0463231,74.7061192 39.592861,74.7061192 L38.2820717,74.7061192 L38.2820717,76.0169082 C38.2820717,76.4703704 38.1568975,76.7726785 37.7034353,76.7726785 C37.2499732,76.7726785 37.1247987,76.4703704 37.1247987,76.0169082 L37.1247987,74.7061192 L35.8140097,74.7061192 C35.3605475,74.7061192 35.0582394,74.5809447 35.0582394,74.1274826 C35.0582394,73.6740204 35.3605475,73.5512077 35.8140097,73.5512077 L37.1247987,73.5512077 L37.1247987,72.2380569 C37.1247987,71.7845947 37.2499732,71.4822866 37.7034353,71.4822866 C38.1568975,71.4822866 38.2797101,71.7845947 38.2797101,72.2380569 L38.2797101,73.5512077 L39.592861,73.5512077 C40.0463231,73.5512077 40.3486312,73.6740204 40.3486312,74.1274826 Z" id="bottle"></path>
        </g>
    </g>
</svg>