<?xml version="1.0" encoding="UTF-8"?>
<svg width="24px" height="24px" viewBox="0 0 24 24" version="1.1" xmlns="http://www.w3.org/2000/svg" xmlns:xlink="http://www.w3.org/1999/xlink">
    <!-- Generator: Sketch 59 (86127) - https://sketch.com -->
    <title>design</title>
    <desc>Created with Sketch.</desc>
    <g id="Tripbee" stroke="none" stroke-width="1" fill="none" fill-rule="evenodd">
        <g id="Artboard" transform="translate(-84.000000, -64.000000)" fill="#29424C" fill-rule="nonzero">
            <path d="M106.064516,84.1290323 C107.131742,84.1290323 108,84.9972903 108,86.0645161 C108,87.1317419 107.131742,88 106.064516,88 L106.064516,88 L87.768,88 L84.3809032,86.0645161 L87.768,84.1290323 Z M102.580645,84.9032258 L88.6451613,84.9032258 L88.6451613,87.2258065 L102.580645,87.2258065 L102.580645,84.9032258 Z M104.129032,84.9032258 L103.354839,84.9032258 L103.354839,87.2258065 L104.129032,87.2258065 L104.129032,84.9032258 Z M106.064516,84.9032258 L104.903226,84.9032258 L104.903226,87.2258065 L106.064516,87.2258065 C106.704774,87.2258065 107.225806,86.7047742 107.225806,86.0645161 C107.225806,85.4242581 106.704774,84.9032258 106.064516,84.9032258 L106.064516,84.9032258 Z M87.8709677,84.9620645 L85.9416774,86.0645161 L87.8709677,87.1669677 L87.8709677,84.9620645 Z M108,64 L108,83.3548387 L84,83.3548387 L84,64 L108,64 Z M107.225806,64.7741935 L84.7741935,64.7741935 L84.7741935,82.5806452 L107.225806,82.5806452 L107.225806,64.7741935 Z M92.1290323,74.8387097 L92.1290323,81.8064516 L85.5483871,81.8064516 L85.5483871,74.8387097 L92.1290323,74.8387097 Z M99.0967742,74.8387097 L99.0967742,81.8064516 L92.9032258,81.8064516 L92.9032258,74.8387097 L99.0967742,74.8387097 Z M106.451613,74.8387097 L106.451613,81.8064516 L99.8709677,81.8064516 L99.8709677,74.8387097 L106.451613,74.8387097 Z M91.3548387,75.6129032 L86.3225806,75.6129032 L86.3225806,81.0322581 L91.3548387,81.0322581 L91.3548387,75.6129032 Z M98.3225806,75.6129032 L93.6774194,75.6129032 L93.6774194,81.0322581 L98.3225806,81.0322581 L98.3225806,75.6129032 Z M105.677419,75.6129032 L100.645161,75.6129032 L100.645161,81.0322581 L105.677419,81.0322581 L105.677419,75.6129032 Z M99.0967742,65.5483871 L99.0967742,74.0645161 L85.5483871,74.0645161 L85.5483871,65.5483871 L99.0967742,65.5483871 Z M106.451613,73.2903226 L106.451613,74.0645161 L99.8709677,74.0645161 L99.8709677,73.2903226 L106.451613,73.2903226 Z M98.3225806,66.3225806 L86.3225806,66.3225806 L86.3225806,73.2903226 L98.3225806,73.2903226 L98.3225806,66.3225806 Z M106.451613,71.7419355 L106.451613,72.516129 L99.8709677,72.516129 L99.8709677,71.7419355 L106.451613,71.7419355 Z M92.1290323,67.0967742 C93.6232258,67.0967742 94.8387097,68.3122581 94.8387097,69.8064516 C94.8387097,71.3006452 93.6232258,72.516129 92.1290323,72.516129 C90.6348387,72.516129 89.4193548,71.3006452 89.4193548,69.8064516 C89.4193548,68.3122581 90.6348387,67.0967742 92.1290323,67.0967742 Z M92.1290323,67.8709677 C91.0618065,67.8709677 90.1935484,68.7392258 90.1935484,69.8064516 C90.1935484,70.8736774 91.0618065,71.7419355 92.1290323,71.7419355 C93.1962581,71.7419355 94.0645161,70.8736774 94.0645161,69.8064516 C94.0645161,68.7392258 93.1962581,67.8709677 92.1290323,67.8709677 Z M106.451613,70.1935484 L106.451613,70.9677419 L99.8709677,70.9677419 L99.8709677,70.1935484 L106.451613,70.1935484 Z M106.451613,68.6451613 L106.451613,69.4193548 L99.8709677,69.4193548 L99.8709677,68.6451613 L106.451613,68.6451613 Z M106.451613,67.0967742 L106.451613,67.8709677 L99.8709677,67.8709677 L99.8709677,67.0967742 L106.451613,67.0967742 Z M106.451613,65.5483871 L106.451613,66.3225806 L99.8709677,66.3225806 L99.8709677,65.5483871 L106.451613,65.5483871 Z" id="design"></path>
        </g>
    </g>
</svg>