<?xml version="1.0" encoding="UTF-8"?>
<svg width="32px" height="32px" viewBox="0 0 32 32" version="1.1" xmlns="http://www.w3.org/2000/svg" xmlns:xlink="http://www.w3.org/1999/xlink">
    <!-- Generator: Sketch 59 (86127) - https://sketch.com -->
    <title>design</title>
    <desc>Created with Sketch.</desc>
    <g id="Page-1" stroke="none" stroke-width="1" fill="none" fill-rule="evenodd">
        <g id="Artboard" transform="translate(-84.000000, -64.000000)" fill="#29424C" fill-rule="nonzero">
            <path d="M113.419355,90.8387097 C114.842323,90.8387097 116,91.9963871 116,93.4193548 C116,94.8423226 114.842323,96 113.419355,96 L113.419355,96 L89.024,96 L84.507871,93.4193548 L89.024,90.8387097 Z M108.774194,91.8709677 L90.1935484,91.8709677 L90.1935484,94.9677419 L108.774194,94.9677419 L108.774194,91.8709677 Z M110.83871,91.8709677 L109.806452,91.8709677 L109.806452,94.9677419 L110.83871,94.9677419 L110.83871,91.8709677 Z M113.419355,91.8709677 L111.870968,91.8709677 L111.870968,94.9677419 L113.419355,94.9677419 C114.273032,94.9677419 114.967742,94.2730323 114.967742,93.4193548 C114.967742,92.5656774 114.273032,91.8709677 113.419355,91.8709677 L113.419355,91.8709677 Z M89.1612903,91.9494194 L86.5889032,93.4193548 L89.1612903,94.8892903 L89.1612903,91.9494194 Z M116,64 L116,89.8064516 L84,89.8064516 L84,64 L116,64 Z M114.967742,65.0322581 L85.0322581,65.0322581 L85.0322581,88.7741935 L114.967742,88.7741935 L114.967742,65.0322581 Z M94.8387097,78.4516129 L94.8387097,87.7419355 L86.0645161,87.7419355 L86.0645161,78.4516129 L94.8387097,78.4516129 Z M104.129032,78.4516129 L104.129032,87.7419355 L95.8709677,87.7419355 L95.8709677,78.4516129 L104.129032,78.4516129 Z M113.935484,78.4516129 L113.935484,87.7419355 L105.16129,87.7419355 L105.16129,78.4516129 L113.935484,78.4516129 Z M93.8064516,79.483871 L87.0967742,79.483871 L87.0967742,86.7096774 L93.8064516,86.7096774 L93.8064516,79.483871 Z M103.096774,79.483871 L96.9032258,79.483871 L96.9032258,86.7096774 L103.096774,86.7096774 L103.096774,79.483871 Z M112.903226,79.483871 L106.193548,79.483871 L106.193548,86.7096774 L112.903226,86.7096774 L112.903226,79.483871 Z M104.129032,66.0645161 L104.129032,77.4193548 L86.0645161,77.4193548 L86.0645161,66.0645161 L104.129032,66.0645161 Z M113.935484,76.3870968 L113.935484,77.4193548 L105.16129,77.4193548 L105.16129,76.3870968 L113.935484,76.3870968 Z M103.096774,67.0967742 L87.0967742,67.0967742 L87.0967742,76.3870968 L103.096774,76.3870968 L103.096774,67.0967742 Z M113.935484,74.3225806 L113.935484,75.3548387 L105.16129,75.3548387 L105.16129,74.3225806 L113.935484,74.3225806 Z M94.8387097,68.1290323 C96.8309677,68.1290323 98.4516129,69.7496774 98.4516129,71.7419355 C98.4516129,73.7341935 96.8309677,75.3548387 94.8387097,75.3548387 C92.8464516,75.3548387 91.2258065,73.7341935 91.2258065,71.7419355 C91.2258065,69.7496774 92.8464516,68.1290323 94.8387097,68.1290323 Z M94.8387097,69.1612903 C93.4157419,69.1612903 92.2580645,70.3189677 92.2580645,71.7419355 C92.2580645,73.1649032 93.4157419,74.3225806 94.8387097,74.3225806 C96.2616774,74.3225806 97.4193548,73.1649032 97.4193548,71.7419355 C97.4193548,70.3189677 96.2616774,69.1612903 94.8387097,69.1612903 Z M113.935484,72.2580645 L113.935484,73.2903226 L105.16129,73.2903226 L105.16129,72.2580645 L113.935484,72.2580645 Z M113.935484,70.1935484 L113.935484,71.2258065 L105.16129,71.2258065 L105.16129,70.1935484 L113.935484,70.1935484 Z M113.935484,68.1290323 L113.935484,69.1612903 L105.16129,69.1612903 L105.16129,68.1290323 L113.935484,68.1290323 Z M113.935484,66.0645161 L113.935484,67.0967742 L105.16129,67.0967742 L105.16129,66.0645161 L113.935484,66.0645161 Z" id="design"></path>
        </g>
    </g>
</svg>