<?xml version="1.0" encoding="UTF-8"?>
<svg width="32px" height="29px" viewBox="0 0 32 29" version="1.1" xmlns="http://www.w3.org/2000/svg" xmlns:xlink="http://www.w3.org/1999/xlink">
    <!-- Generator: Sketch 59 (86127) - https://sketch.com -->
    <title>heart</title>
    <desc>Created with Sketch.</desc>
    <g id="Page-1" stroke="none" stroke-width="1" fill="none" fill-rule="evenodd">
        <g id="Artboard" transform="translate(-81.000000, -17.000000)" fill="#29424C" fill-rule="nonzero">
            <path d="M90.6772576,17.0000311 C92.6183964,17.0000311 94.7447583,18.0447212 97.0007765,20.1229251 C98.9484306,18.3475024 101.485359,17.3575461 104.120755,17.3445776 C106.403017,17.3293837 108.592381,18.2474178 110.181257,19.8858394 C113.939581,23.7926166 113.939581,29.9708202 110.181257,33.8775974 L110.181257,33.8775974 L98.2306583,45.3799561 C97.52872,46.0636689 96.409857,46.0636689 95.7079188,45.3799561 L95.7079188,45.3799561 L87.5580995,37.5079715 C87.2634872,37.2235888 87.2551945,36.7542206 87.5395771,36.4596084 C87.8239598,36.1649961 88.293328,36.1567034 88.5879403,36.441086 L88.5879403,36.441086 L96.7377596,44.3130706 C96.8661393,44.4397037 97.0724378,44.4397037 97.2008175,44.3130706 L97.2008175,44.3130706 L109.106963,32.8292343 C112.29166,29.4994099 112.29166,24.2529135 109.106963,20.9230892 C107.79182,19.5707535 105.981136,18.8146291 104.094824,18.8300674 L104.094824,18.8300674 L104.039257,18.8300674 C101.60569,18.8779438 99.288272,19.8796748 97.5860817,21.6195283 C97.2632392,21.93677 96.7457226,21.93677 96.4228802,21.6195283 C94.3150406,19.5672556 92.3257438,18.4818478 90.6772576,18.4818478 C88.4945816,18.4748829 86.4029944,19.3561847 84.8834769,20.9230892 C83.2120131,22.6551992 82.3473473,25.0111783 82.501507,27.4133089 C82.526058,27.8224926 82.2142516,28.1741041 81.8050679,28.1986551 C81.3958842,28.2232061 81.0442727,27.9113997 81.0197217,27.502216 C80.8429366,24.684403 81.8608713,21.9223978 83.8240004,19.8932484 C85.6205404,18.0379117 88.0946647,16.9934301 90.6772576,17.0000311 Z M93.168045,24.9058881 C93.4890366,24.9253166 93.7608445,25.149594 93.8408693,25.4610567 L93.8408693,25.4610567 L95.8894375,33.7071921 L98.1121155,29.4803994 C98.2336509,29.2177869 98.4969566,29.0499657 98.7863278,29.0506817 L98.7863278,29.0506817 L98.8987357,29.0587922 C99.1200404,29.0918258 99.3170138,29.2238595 99.4309044,29.421128 L99.4309044,29.421128 L100.834896,31.9253452 L103.835511,31.9253452 C104.244695,31.9253452 104.576404,32.2570542 104.576404,32.6662379 C104.576404,33.0754216 104.244695,33.4071306 103.835511,33.4071306 L103.835511,33.4071306 L100.394065,33.4071306 C100.128318,33.4081856 99.8823607,33.2668308 99.7494883,33.0366842 L99.7494883,33.0366842 L98.8048501,31.3511534 L96.3339731,36.0854576 C96.2059959,36.3291127 95.9535029,36.4818351 95.6782831,36.4818351 L95.6782831,36.4818351 L95.5930804,36.4818351 C95.2868981,36.44641 95.0346309,36.225123 94.9596172,35.9261656 L94.9596172,35.9261656 L92.9703204,28.0467721 L90.8143227,33.6034671 C90.713114,33.8649694 90.4729471,34.0469282 90.1938128,34.0735871 C89.9146785,34.100246 89.6444113,33.9670365 89.4955338,33.7294189 L89.4955338,33.7294189 L87.8544565,31.1140678 L86.6468015,33.0737289 C86.5165964,33.2993287 86.2774867,33.4399815 86.0170427,33.4441752 L86.0170427,33.4441752 L82.9793828,33.4626975 C82.5701991,33.4626975 82.2384901,33.1309886 82.2384901,32.7218049 C82.2384901,32.3126211 82.5701991,31.9809122 82.9793828,31.9809122 L82.9793828,31.9809122 L85.6058473,31.9809122 L87.2246978,29.3581522 C87.3549028,29.1325524 87.5940126,28.9918996 87.8544565,28.9877058 L87.8544565,28.9877058 L87.962238,28.9959027 C88.1745972,29.0277652 88.364822,29.1508216 88.4805108,29.3359254 L88.4805108,29.3359254 L89.9622962,31.7104864 L92.4331732,25.3758541 C92.5501795,25.0763169 92.8470535,24.8864597 93.168045,24.9058881 Z" id="heart"></path>
        </g>
    </g>
</svg>