<?xml version="1.0" encoding="UTF-8"?>
<svg width="58px" height="57px" viewBox="0 0 58 57" version="1.1" xmlns="http://www.w3.org/2000/svg" xmlns:xlink="http://www.w3.org/1999/xlink">
    <!-- Generator: Sketch 58 (84663) - https://sketch.com -->
    <title>Combined Shape</title>
    <desc>Created with Sketch.</desc>
    <g id="Page-1" stroke="none" stroke-width="1" fill="none" fill-rule="evenodd">
        <g id="Artboard" transform="translate(-1530.000000, -291.000000)" fill="#BA4E69">
            <path d="M1585.58824,291 C1586.06952,291 1586.49733,291.187166 1586.87166,291.561497 C1587.24599,291.935829 1587.43316,292.363636 1587.43316,292.84492 L1587.43316,292.84492 L1587.43316,323.935829 C1587.43316,329.31016 1585.74866,348 1558.71658,348 C1540.69519,348 1531.12299,339.97861 1530,323.935829 L1530,323.935829 L1530,302.871658 C1530,295.812834 1536.73797,291 1545.24064,291 C1551.3369,291 1553.74332,293.406417 1552.62032,295.812834 C1551.49733,298.219251 1548.85027,295.812834 1545.24064,295.812834 C1539.70588,295.812834 1534.81283,297.176471 1534.81283,302.871658 C1534.81283,305.973262 1534.86631,307.631016 1534.97326,307.84492 C1537.55303,310.527837 1540.57699,311.849424 1545.24064,313.299465 C1563.75882,319.057219 1564.31437,323.652685 1564.33104,330.512047 L1564.33155,331.15508 C1564.33155,338.374332 1558.71658,343.187166 1556.14973,343.187166 C1571.47059,343.187166 1582.62032,337.090909 1582.62032,323.935829 L1582.62032,323.935829 L1582.62032,295.812834 L1564.33155,295.812834 C1562.72727,295.812834 1561.92513,295.010695 1561.92513,293.406417 C1561.92513,291.802139 1562.72727,291 1564.33155,291 L1564.33155,291 Z M1534.81283,313.299465 L1534.81283,326.935829 C1535,335 1542.92238,340.083696 1545.24064,341.181818 C1546.76471,341.903743 1549.99501,341.535692 1553,340.5 C1557.87968,338.818182 1559.5,333.160428 1559.5,330.994652 C1559.5,325 1557.5,322.5 1545.24064,318.112299 C1540.48449,316.410043 1538.98396,316.427807 1534.81283,313.299465 L1534.81283,313.299465 Z" id="Combined-Shape"></path>
        </g>
    </g>
</svg>