<?xml version="1.0" encoding="UTF-8"?>
<svg width="20px" height="20px" viewBox="0 0 20 20" version="1.1" xmlns="http://www.w3.org/2000/svg" xmlns:xlink="http://www.w3.org/1999/xlink">
    <!-- Generator: Sketch 59 (86127) - https://sketch.com -->
    <title>logo</title>
    <desc>Created with Sketch.</desc>
    <defs>
        <linearGradient x1="50%" y1="26.2881502%" x2="50%" y2="100%" id="linearGradient-1">
            <stop stop-color="#F4D0C5" offset="0%"></stop>
            <stop stop-color="#F2BCB1" offset="100%"></stop>
        </linearGradient>
    </defs>
    <g id="Page-1" stroke="none" stroke-width="1" fill="none" fill-rule="evenodd">
        <g id="Sarah-Joo---Resume-2019" transform="translate(-32.000000, -22.000000)" fill="url(#linearGradient-1)">
            <g id="Group-13">
                <g id="Group-12" transform="translate(32.000000, 21.000000)">
                    <path d="M8.26815642,1 C8.82681564,1 9.10614525,1.26737968 9.10614525,1.80213904 C9.10614525,2.3368984 8.82681564,2.60427807 8.26815642,2.60427807 L8.26815642,2.60427807 L5.30726257,2.60427807 C3.2122905,2.60427807 1.67597765,3.40641711 1.67597765,4.74331551 L1.67597765,4.74331551 L1.67597765,6.64171123 C1.67597765,7.36363636 2.49562154,8.14877374 3.88268156,8.56684492 C11.7030377,10.9239639 11.9474238,12.9799674 11.9550609,15.1724139 L11.9553073,15.3850267 C11.9553073,17.0709223 11.2849162,18.4078207 9.94413408,19.3957219 C14.8044693,19.3957219 18.3240223,17.1764706 18.3240223,13.2192513 L18.3240223,13.2192513 L18.3240223,2.60427807 L11.9553073,2.60427807 C11.396648,2.60427807 11.1173184,2.3368984 11.1173184,1.80213904 C11.1173184,1.26737968 11.396648,1 11.9553073,1 L11.9553073,1 L19.2178771,1 C19.4785847,1 19.6741155,1.06238859 19.8044693,1.18716578 C19.9348231,1.31194296 20,1.49019608 20,1.72192513 L20,1.72192513 L20,13.2192513 C20,14.7433155 19.3575419,21 9.94413408,21 C3.66852886,21 0.353817505,18.4064171 0,13.2192513 L0,13.2192513 L0,4.74331551 C0,2.60427807 1.89944134,1 5.30726257,1 L5.30726257,1 Z M1.67590745,9.07486631 L1.67590745,13.4 C1.76251063,14.8858532 2.19826638,16.0880442 2.9831747,17.0065729 C3.53598366,17.6534903 4.74860335,19.0481283 6.87150838,19.0481283 C9.46927374,19.0481283 10.5586179,16.5080214 10.5586179,15.3850267 C10.5586179,13.6203209 10,12.8449198 7.87709497,11.7219251 C5.75418994,10.5989305 2.51396648,10.0374332 1.67590745,9.07486631 L1.67590745,9.07486631 Z" id="logo"></path>
                </g>
            </g>
        </g>
    </g>
</svg>