<?xml version="1.0" encoding="UTF-8"?>
<svg width="20px" height="20px" viewBox="0 0 20 20" version="1.1" xmlns="http://www.w3.org/2000/svg" xmlns:xlink="http://www.w3.org/1999/xlink">
    <!-- Generator: Sketch 59 (86127) - https://sketch.com -->
    <title>Combined Shape</title>
    <desc>Created with Sketch.</desc>
    <defs>
        <linearGradient x1="50%" y1="0%" x2="50%" y2="100%" id="linearGradient-1">
            <stop stop-color="#B37B74" offset="0%"></stop>
            <stop stop-color="#A64B69" offset="100%"></stop>
        </linearGradient>
    </defs>
    <g id="Page-2" stroke="none" stroke-width="1" fill="none" fill-rule="evenodd">
        <path d="M8.26815642,0 C8.82681564,0 9.10614525,0.267379679 9.10614525,0.802139037 C9.10614525,1.3368984 8.82681564,1.60427807 8.26815642,1.60427807 L8.26815642,1.60427807 L5.30726257,1.60427807 C3.2122905,1.60427807 1.67597765,2.40641711 1.67597765,3.74331551 L1.67597765,3.74331551 L1.67597765,5.64171123 C1.67597765,6.36363636 2.49562154,7.14877374 3.88268156,7.56684492 C11.7030377,9.9239639 11.9474238,11.9799674 11.9550609,14.1724139 L11.9553073,14.3850267 C11.9553073,16.0709223 11.2849162,17.4078207 9.94413408,18.3957219 C14.8044693,18.3957219 18.3240223,16.1764706 18.3240223,12.2192513 L18.3240223,12.2192513 L18.3240223,1.60427807 L11.9553073,1.60427807 C11.396648,1.60427807 11.1173184,1.3368984 11.1173184,0.802139037 C11.1173184,0.267379679 11.396648,0 11.9553073,0 L11.9553073,0 L19.2178771,0 C19.4785847,0 19.6741155,0.0623885918 19.8044693,0.187165775 C19.9348231,0.311942959 20,0.490196078 20,0.721925134 L20,0.721925134 L20,12.2192513 C20,13.7433155 19.3575419,20 9.94413408,20 C3.66852886,20 0.353817505,17.4064171 0,12.2192513 L0,12.2192513 L0,3.74331551 C0,1.60427807 1.89944134,0 5.30726257,0 L5.30726257,0 Z M1.67590745,8.07486631 L1.67590745,12.4 C1.76251063,13.8858532 2.19826638,15.0880442 2.9831747,16.0065729 C3.53598366,16.6534903 4.74860335,18.0481283 6.87150838,18.0481283 C9.46927374,18.0481283 10.5586179,15.5080214 10.5586179,14.3850267 C10.5586179,12.6203209 10,11.8449198 7.87709497,10.7219251 C5.75418994,9.59893048 2.51396648,9.03743316 1.67590745,8.07486631 L1.67590745,8.07486631 Z" id="Combined-Shape" fill="url(#linearGradient-1)"></path>
    </g>
</svg>