<?xml version="1.0" encoding="UTF-8"?>
<svg width="53px" height="48px" viewBox="0 0 53 48" version="1.1" xmlns="http://www.w3.org/2000/svg" xmlns:xlink="http://www.w3.org/1999/xlink">
    <!-- Generator: Sketch 55.1 (78136) - https://sketchapp.com -->
    <title>Logo</title>
    <desc>Created with Sketch.</desc>
    <g id="Symbols" stroke="none" stroke-width="1" fill="none" fill-rule="evenodd">
        <g id="desktop/menu" transform="translate(-130.000000, -21.000000)" fill="#EFEFEF" fill-rule="nonzero">
            <g id="menu">
                <g id="Group-5">
                    <path d="M146.415306,35.2904992 C146.612262,30.9320558 150.225723,27.4541247 154.632961,27.4541247 C157.956982,27.4541247 160.807764,29.4392427 162.101403,32.2834864 C163.175682,31.887479 166.236111,31.886766 167.30545,32.2834864 C168.598788,29.4385033 171.462862,27.4541247 174.787421,27.4541247 C179.320319,27.4541247 183,31.1332098 183,35.6653924 C183,40.1975575 179.320319,43.87666 174.787421,43.87666 C170.254522,43.87666 166.561312,40.1975575 166.561312,35.6653924 C166.561312,35.0702198 166.630026,34.4933945 166.750729,33.9338565 C165.941121,33.6328758 163.479261,33.6328758 162.669654,33.9338565 C162.790356,34.4933945 162.845541,35.0702198 162.845541,35.6653924 C162.845541,40.1975575 159.165859,43.87666 154.632961,43.87666 C151.004805,43.87666 147.914593,41.5196465 146.825553,38.2547535 C146.600963,38.5457028 146.349864,38.8553298 146.018702,39.2417023 C145.135889,40.2716944 144.234104,41.2738339 143.313321,42.2481507 C142.392538,43.2224675 141.552454,44.1271768 140.793045,44.9623055 C140.81203,46.4469788 140.835762,47.9037926 140.864239,49.3327906 C140.892717,50.7617887 140.906956,52.1165327 140.906956,53.3970635 C140.906956,58.5006279 140.394363,62.286488 139.369161,64.7547573 C138.343959,67.2230267 136.815671,68.4571429 134.784252,68.4571429 C134.081799,68.4571429 133.436311,68.3086778 132.847769,68.0117431 C132.259227,67.7148084 131.756126,67.2879713 131.338452,66.7312188 C130.920777,66.1744663 130.593286,65.4878152 130.355971,64.6712449 C130.118656,63.8546746 130,62.9267677 130,61.8874964 C130,60.7368746 130.156626,59.4795608 130.469882,58.1155172 C130.783138,56.7514736 131.286239,55.3085784 131.9792,53.7867882 C132.67216,52.2649981 133.569199,50.6921959 134.670341,49.0683345 C135.771484,47.4444731 137.10043,45.7974384 138.657218,44.1271809 C138.657218,42.5311572 138.666711,40.9397968 138.685696,39.3530523 C138.704681,37.7663077 138.737905,36.2445404 138.785368,34.7877047 C138.832831,33.330869 138.899278,33.4811316 138.984712,32.2098801 C139.070145,30.9386286 139.169816,29.8112218 139.283728,28.8276257 C139.321698,28.5492495 139.440354,28.3265518 139.639699,28.1595261 C139.839043,27.9925003 140.081101,27.9089887 140.36588,27.9089887 C140.650658,27.9089887 140.897462,28.0110584 141.1063,28.215201 C141.315137,28.4193436 141.419554,28.6698785 141.419554,28.9668131 C141.419554,29.0781636 141.386331,29.4400473 141.319882,30.052475 C141.253434,30.6649028 141.182241,31.5649725 141.1063,32.7527111 C141.030359,33.9404497 140.959165,33.8968964 140.892717,35.6506667 C140.826269,37.4044371 140.793045,39.478309 140.793045,41.8723447 C141.495498,41.130008 142.216926,40.3459267 142.95735,39.5200772 C143.697773,38.6942276 144.409709,37.8683905 145.093177,37.042541 C145.73321,36.2691747 145.925701,35.986285 146.415306,35.2904992 Z M142.5,23 C142.5,23.5567793 142.305863,24.0293021 141.917582,24.4175824 C141.529302,24.8058627 141.056779,25 140.5,25 C139.943221,25 139.470698,24.8058627 139.082418,24.4175824 C138.694137,24.0293021 138.5,23.5567793 138.5,23 C138.5,22.7216103 138.551282,22.4615397 138.653846,22.2197802 C138.756411,21.9780208 138.899266,21.7655687 139.082418,21.5824176 C139.265569,21.3992665 139.478021,21.2564108 139.71978,21.1538462 C139.96154,21.0512815 140.22161,21 140.5,21 C140.77839,21 141.03846,21.0512815 141.28022,21.1538462 C141.521979,21.2564108 141.734431,21.3992665 141.917582,21.5824176 C142.100734,21.7655687 142.243589,21.9780208 142.346154,22.2197802 C142.448718,22.4615397 142.5,22.7216103 142.5,23 Z M138.771129,53.2300385 C138.771129,52.2835593 138.761637,51.3370943 138.742651,50.3906151 C138.723666,49.4441358 138.704681,48.4141592 138.685696,47.3006542 C137.508612,48.6925354 136.507157,50.0658376 135.6813,51.420602 C134.855442,52.7753664 134.176731,54.074436 133.645145,55.3178499 C133.113558,56.5612638 132.729113,57.7397056 132.491798,58.8532105 C132.254483,59.9667155 132.135827,60.978134 132.135827,61.8874964 C132.135827,62.407132 132.173797,62.9313994 132.249738,63.4603143 C132.325679,63.9892292 132.463319,64.4717407 132.662664,64.9078635 C132.862009,65.3439863 133.132544,65.6965909 133.474278,65.9656879 C133.816012,66.234785 134.252666,66.3693315 134.784252,66.3693315 C134.99309,66.3693315 135.239894,66.3229361 135.524672,66.2301441 C135.809451,66.137352 136.098971,65.937852 136.393242,65.6316381 C136.687513,65.3254243 136.977033,64.8846685 137.261811,64.3093576 C137.54659,63.7340467 137.802886,62.9592444 138.030709,61.9849276 C138.258532,61.0106107 138.438889,59.8089713 138.571785,58.3799733 C138.704682,56.9509752 138.771129,55.2343475 138.771129,53.2300385 Z M154.625647,29.6935614 C151.320979,29.6935614 148.646647,32.3646787 148.646647,35.6653924 C148.646647,38.9660742 151.320979,41.6372233 154.625647,41.6372233 C157.930315,41.6372233 160.592217,38.9660742 160.592217,35.6653924 C160.592217,32.3646787 157.930315,29.6935614 154.625647,29.6935614 Z M152.275865,31.220526 C152.463989,31.1921158 152.743228,31.3660338 152.899563,31.6089827 C153.055899,31.8519317 153.030129,32.0719118 152.842005,32.1003221 C152.42596,32.1631527 152.101036,32.3129877 151.864507,32.549517 C151.627978,32.7860464 151.478143,33.1109703 151.415312,33.527015 C151.386902,33.7151389 151.166922,33.7409087 150.923973,33.5845735 C150.681024,33.4282382 150.507106,33.1489988 150.535516,32.9608748 C150.611195,32.4597489 150.794536,32.0621675 151.085847,31.7708566 C151.377157,31.4795457 151.774739,31.2962055 152.275865,31.220526 Z M174.783796,29.6935614 C171.479128,29.6935614 168.804796,32.3674582 168.804796,35.6716065 C168.804796,38.9757231 171.479128,41.6496517 174.783796,41.6496517 C178.088464,41.6496517 180.750366,38.9757231 180.750366,35.6716065 C180.750366,32.3674582 178.088464,29.6935614 174.783796,29.6935614 Z M172.430794,31.220526 C172.618918,31.1921158 172.898158,31.3660338 173.054493,31.6089827 C173.210828,31.8519317 173.185058,32.0719118 172.996934,32.1003221 C172.58089,32.1631527 172.255966,32.3129877 172.019437,32.549517 C171.782907,32.7860464 171.633072,33.1109703 171.570242,33.527015 C171.541831,33.7151389 171.321851,33.7409087 171.078902,33.5845735 C170.835953,33.4282382 170.662035,33.1489988 170.690446,32.9608748 C170.766125,32.4597489 170.949465,32.0621675 171.240776,31.7708566 C171.532087,31.4795457 171.929668,31.2962055 172.430794,31.220526 Z" id="Logo"></path>
                </g>
            </g>
        </g>
    </g>
</svg>