<?xml version="1.0" encoding="UTF-8"?>
<svg width="16px" height="16px" viewBox="0 0 16 16" version="1.1" xmlns="http://www.w3.org/2000/svg" xmlns:xlink="http://www.w3.org/1999/xlink">
    <!-- Generator: Sketch 59 (86127) - https://sketch.com -->
    <title>logo</title>
    <desc>Created with Sketch.</desc>
    <g id="Symbols" stroke="none" stroke-width="1" fill="none" fill-rule="evenodd" opacity="0.2">
        <path d="M5.5,16 C2,16 0,13 0,9.5 C0,8.09052905 0.00568282721,6.34717027 0.0170484816,4.26992366 L1.43529627,7.32629008 C1.44312361,7.56740383 1.45305948,8.2919738 1.46510389,9.5 C1.5,13 3.5,14.5 5,14.5 C6.21749734,14.5 6.65749728,14.3267201 7.26624595,13.8098321 C7.87499462,13.292944 8.17936439,12.6224978 8.17936439,11.7984733 C8.17936439,11.1692182 8.0142276,10.6673199 7.68394907,10.2927634 C7.35367053,9.91820678 6.9489235,9.62980254 6.46969582,9.42754198 L6.32766353,9.36924374 C5.86171258,9.18301914 5.24203183,8.98146625 4.46860647,8.76458015 C3.44539062,8.46493489 2.84059508,8.17653065 2.2318464,7.89935878 C1.62309773,7.62218691 1.10178355,7.19894432 0.667888222,6.62961832 C0.233992892,6.06029232 0.0170484816,5.28871734 0.0170484816,4.31487023 C0.0170484816,3.52081028 0.198375153,2.79792692 0.561033936,2.14619847 C0.923692719,1.49447002 1.48062464,0.973844187 2.2318464,0.584305344 C2.98306817,0.1947665 3.91560534,0 5.02948588,0 C5.54756986,0 6.2044079,0 7,0 L7,1.41581679 C6.1007911,1.41581679 5.44395306,1.41581679 5.02948588,1.41581679 C3.83789274,1.41581679 2.94097331,1.68174798 2.33870069,2.21361832 C1.73642807,2.74548866 1.43529627,3.43091692 1.43529627,4.26992366 C1.43529627,4.89917872 1.60043306,5.40482252 1.9307116,5.78687023 C2.26099013,6.16891794 2.6754511,6.46106769 3.17410692,6.66332824 C3.64651771,6.85494351 4.06177092,7.06336415 4.84223263,7.28859581 L4.97373582,7.32629008 C5.97104748,7.61095308 6.77730357,7.8918663 7.39252829,8.16903817 C8.00775301,8.44621004 8.52906719,8.86570711 8.95648647,9.42754198 C9.38390575,9.98937685 9.59761219,10.7497153 9.59761219,11.7085802 C9.59761219,12.5026401 9.41304754,13.2255235 9.0439127,13.8772519 C8.98658184,13.9784728 8.81335787,14.1971666 8.52424081,14.5333333 C9.47198176,14.5594092 10.3155264,14.5594092 11.0548748,14.5333333 C12,14.5 14.5,13 14.5,9.5 C14.5,9.44337474 14.5254515,6.75004141 14.5763546,1.42 L9.59761219,1.42 L9.59761219,0 L14.5763546,0 L16,0 C16,5.44444444 16,8.61111111 16,9.5 C16,13 14,16 10.5,16 L7.99147576,16 C7.09891865,16 6.61387507,16 5.5,16 Z" id="logo" fill="#C2848A" fill-rule="nonzero"></path>
    </g>
</svg>