<?xml version="1.0" encoding="UTF-8"?>
<svg width="53px" height="48px" viewBox="0 0 53 48" version="1.1" xmlns="http://www.w3.org/2000/svg" xmlns:xlink="http://www.w3.org/1999/xlink">
    <!-- Generator: Sketch 55.1 (78136) - https://sketchapp.com -->
    <title>Logo</title>
    <desc>Created with Sketch.</desc>
    <g id="Symbols" stroke="none" stroke-width="1" fill="none" fill-rule="evenodd">
        <g id="desktop/menu" transform="translate(-220.000000, -20.000000)" fill="#FFFFFF" fill-rule="nonzero">
            <g id="menu">
                <g id="Group-5">
                    <path d="M236.415306,34.2904992 C236.612262,29.9320558 240.225723,26.4541247 244.632961,26.4541247 C247.956982,26.4541247 250.807764,28.4392427 252.101403,31.2834864 C253.175682,30.887479 256.236111,30.886766 257.30545,31.2834864 C258.598788,28.4385033 261.462862,26.4541247 264.787421,26.4541247 C269.320319,26.4541247 273,30.1332098 273,34.6653924 C273,39.1975575 269.320319,42.87666 264.787421,42.87666 C260.254522,42.87666 256.561312,39.1975575 256.561312,34.6653924 C256.561312,34.0702198 256.630026,33.4933945 256.750729,32.9338565 C255.941121,32.6328758 253.479261,32.6328758 252.669654,32.9338565 C252.790356,33.4933945 252.845541,34.0702198 252.845541,34.6653924 C252.845541,39.1975575 249.165859,42.87666 244.632961,42.87666 C241.004805,42.87666 237.914593,40.5196465 236.825553,37.2547535 C236.600963,37.5457028 236.349864,37.8553298 236.018702,38.2417023 C235.135889,39.2716944 234.234104,40.2738339 233.313321,41.2481507 C232.392538,42.2224675 231.552454,43.1271768 230.793045,43.9623055 C230.81203,45.4469788 230.835762,46.9037926 230.864239,48.3327906 C230.892717,49.7617887 230.906956,51.1165327 230.906956,52.3970635 C230.906956,57.5006279 230.394363,61.286488 229.369161,63.7547573 C228.343959,66.2230267 226.815671,67.4571429 224.784252,67.4571429 C224.081799,67.4571429 223.436311,67.3086778 222.847769,67.0117431 C222.259227,66.7148084 221.756126,66.2879713 221.338452,65.7312188 C220.920777,65.1744663 220.593286,64.4878152 220.355971,63.6712449 C220.118656,62.8546746 220,61.9267677 220,60.8874964 C220,59.7368746 220.156626,58.4795608 220.469882,57.1155172 C220.783138,55.7514736 221.286239,54.3085784 221.9792,52.7867882 C222.67216,51.2649981 223.569199,49.6921959 224.670341,48.0683345 C225.771484,46.4444731 227.10043,44.7974384 228.657218,43.1271809 C228.657218,41.5311572 228.666711,39.9397968 228.685696,38.3530523 C228.704681,36.7663077 228.737905,35.2445404 228.785368,33.7877047 C228.832831,32.330869 228.899278,32.4811316 228.984712,31.2098801 C229.070145,29.9386286 229.169816,28.8112218 229.283728,27.8276257 C229.321698,27.5492495 229.440354,27.3265518 229.639699,27.1595261 C229.839043,26.9925003 230.081101,26.9089887 230.36588,26.9089887 C230.650658,26.9089887 230.897462,27.0110584 231.1063,27.215201 C231.315137,27.4193436 231.419554,27.6698785 231.419554,27.9668131 C231.419554,28.0781636 231.386331,28.4400473 231.319882,29.052475 C231.253434,29.6649028 231.182241,30.5649725 231.1063,31.7527111 C231.030359,32.9404497 230.959165,32.8968964 230.892717,34.6506667 C230.826269,36.4044371 230.793045,38.478309 230.793045,40.8723447 C231.495498,40.130008 232.216926,39.3459267 232.95735,38.5200772 C233.697773,37.6942276 234.409709,36.8683905 235.093177,36.042541 C235.73321,35.2691747 235.925701,34.986285 236.415306,34.2904992 Z M232.5,22 C232.5,22.5567793 232.305863,23.0293021 231.917582,23.4175824 C231.529302,23.8058627 231.056779,24 230.5,24 C229.943221,24 229.470698,23.8058627 229.082418,23.4175824 C228.694137,23.0293021 228.5,22.5567793 228.5,22 C228.5,21.7216103 228.551282,21.4615397 228.653846,21.2197802 C228.756411,20.9780208 228.899266,20.7655687 229.082418,20.5824176 C229.265569,20.3992665 229.478021,20.2564108 229.71978,20.1538462 C229.96154,20.0512815 230.22161,20 230.5,20 C230.77839,20 231.03846,20.0512815 231.28022,20.1538462 C231.521979,20.2564108 231.734431,20.3992665 231.917582,20.5824176 C232.100734,20.7655687 232.243589,20.9780208 232.346154,21.2197802 C232.448718,21.4615397 232.5,21.7216103 232.5,22 Z M228.771129,52.2300385 C228.771129,51.2835593 228.761637,50.3370943 228.742651,49.3906151 C228.723666,48.4441358 228.704681,47.4141592 228.685696,46.3006542 C227.508612,47.6925354 226.507157,49.0658376 225.6813,50.420602 C224.855442,51.7753664 224.176731,53.074436 223.645145,54.3178499 C223.113558,55.5612638 222.729113,56.7397056 222.491798,57.8532105 C222.254483,58.9667155 222.135827,59.978134 222.135827,60.8874964 C222.135827,61.407132 222.173797,61.9313994 222.249738,62.4603143 C222.325679,62.9892292 222.463319,63.4717407 222.662664,63.9078635 C222.862009,64.3439863 223.132544,64.6965909 223.474278,64.9656879 C223.816012,65.234785 224.252666,65.3693315 224.784252,65.3693315 C224.99309,65.3693315 225.239894,65.3229361 225.524672,65.2301441 C225.809451,65.137352 226.098971,64.937852 226.393242,64.6316381 C226.687513,64.3254243 226.977033,63.8846685 227.261811,63.3093576 C227.54659,62.7340467 227.802886,61.9592444 228.030709,60.9849276 C228.258532,60.0106107 228.438889,58.8089713 228.571785,57.3799733 C228.704682,55.9509752 228.771129,54.2343475 228.771129,52.2300385 Z M244.625647,28.6935614 C241.320979,28.6935614 238.646647,31.3646787 238.646647,34.6653924 C238.646647,37.9660742 241.320979,40.6372233 244.625647,40.6372233 C247.930315,40.6372233 250.592217,37.9660742 250.592217,34.6653924 C250.592217,31.3646787 247.930315,28.6935614 244.625647,28.6935614 Z M242.275865,30.220526 C242.463989,30.1921158 242.743228,30.3660338 242.899563,30.6089827 C243.055899,30.8519317 243.030129,31.0719118 242.842005,31.1003221 C242.42596,31.1631527 242.101036,31.3129877 241.864507,31.549517 C241.627978,31.7860464 241.478143,32.1109703 241.415312,32.527015 C241.386902,32.7151389 241.166922,32.7409087 240.923973,32.5845735 C240.681024,32.4282382 240.507106,32.1489988 240.535516,31.9608748 C240.611195,31.4597489 240.794536,31.0621675 241.085847,30.7708566 C241.377157,30.4795457 241.774739,30.2962055 242.275865,30.220526 Z M264.783796,28.6935614 C261.479128,28.6935614 258.804796,31.3674582 258.804796,34.6716065 C258.804796,37.9757231 261.479128,40.6496517 264.783796,40.6496517 C268.088464,40.6496517 270.750366,37.9757231 270.750366,34.6716065 C270.750366,31.3674582 268.088464,28.6935614 264.783796,28.6935614 Z M262.430794,30.220526 C262.618918,30.1921158 262.898158,30.3660338 263.054493,30.6089827 C263.210828,30.8519317 263.185058,31.0719118 262.996934,31.1003221 C262.58089,31.1631527 262.255966,31.3129877 262.019437,31.549517 C261.782907,31.7860464 261.633072,32.1109703 261.570242,32.527015 C261.541831,32.7151389 261.321851,32.7409087 261.078902,32.5845735 C260.835953,32.4282382 260.662035,32.1489988 260.690446,31.9608748 C260.766125,31.4597489 260.949465,31.0621675 261.240776,30.7708566 C261.532087,30.4795457 261.929668,30.2962055 262.430794,30.220526 Z" id="Logo"></path>
                </g>
            </g>
        </g>
    </g>
</svg>