<?xml version="1.0" encoding="UTF-8"?>
<svg width="43px" height="44px" viewBox="0 0 43 44" version="1.1" xmlns="http://www.w3.org/2000/svg" xmlns:xlink="http://www.w3.org/1999/xlink">
    <!-- Generator: Sketch 55.1 (78136) - https://sketchapp.com -->
    <title>stars</title>
    <desc>Created with Sketch.</desc>
    <g id="Page-1" stroke="none" stroke-width="1" fill="none" fill-rule="evenodd">
        <g id="Mobile-Homepage" transform="translate(-304.000000, -184.000000)" fill="#FFFFFF" fill-rule="nonzero">
            <g id="Group-5" transform="translate(24.000000, 183.000000)">
                <g id="Group-6">
                    <g id="Group-4">
                        <path d="M284.635868,10.5461795 C284.646673,10.7906355 284.84791,10.9837692 285.091691,10.9837692 C285.095067,10.9837692 285.097093,10.9837692 285.100469,10.9837692 C285.349652,10.9783669 285.547513,10.7771296 285.547513,10.5292972 C285.547513,8.63712685 287.443735,8.46695307 287.66118,8.45412251 C287.906986,8.43926607 288.097419,8.2312759 288.08864,7.98479404 C288.081212,7.73898747 287.879974,7.54315257 287.634843,7.54315257 C285.623146,7.54315257 285.549539,5.66718926 285.548189,5.45379674 L285.548189,5.45312145 C285.546163,5.20258783 285.343575,5 285.092366,5 C284.844533,5 284.641946,5.19853607 284.636543,5.44501793 C284.636543,5.44501793 284.636543,5.44569323 284.636543,5.44636852 L284.636543,5.44704381 C284.636543,5.44771911 284.636543,5.4483944 284.636543,5.4483944 C284.636543,5.45042028 284.636543,5.45109557 284.636543,5.45312145 C284.636543,5.45312145 284.636543,5.45379674 284.636543,5.45447203 C284.636543,7.40269167 282.603237,7.52762083 282.371611,7.53639964 C282.122428,7.54517845 281.926593,7.75114274 281.929927,8.00032577 C281.935372,8.24883351 282.136609,8.44804488 282.385792,8.44804488 C284.489329,8.44872017 284.626414,10.3314364 284.635868,10.5461795 Z M285.082237,7.09543346 C285.294278,7.45739039 285.591407,7.79436148 286.00131,8.04151863 C285.646781,8.25423585 285.313862,8.54528704 285.066705,8.93425567 C284.845884,8.56824699 284.533899,8.22654885 284.11049,7.97196348 C284.4792,7.7646486 284.824275,7.47899975 285.082237,7.09543346 Z M317.547612,19.6234649 C317.558416,19.8679209 317.758978,20.0610546 318.003434,20.0610546 C318.006811,20.0610546 318.008837,20.0610546 318.012213,20.0610546 C318.261396,20.0556523 318.459257,19.854415 318.459257,19.6065826 C318.459257,17.7144122 320.355479,17.5449138 320.572248,17.5314079 C320.818055,17.5165515 321.008487,17.3085613 320.999708,17.0620794 C320.992955,16.8162729 320.791718,16.620438 320.545912,16.620438 C318.534214,16.620438 318.461283,14.7444747 318.459257,14.5310821 L318.459257,14.5304068 C318.457231,14.2805485 318.253968,14.0772854 318.003434,14.0772854 C317.755602,14.0772854 317.553014,14.2758215 317.547612,14.5223033 C317.547612,14.5229786 317.547612,14.5229786 317.547612,14.5229786 L317.547612,14.5243292 L317.547612,14.5256798 C317.547612,14.5277057 317.547612,14.528381 317.547612,14.5304068 L317.547612,14.5317574 C317.547612,16.4799771 315.514305,16.6055815 315.28268,16.613685 C315.033497,16.6224638 314.837662,16.8284281 314.840995,17.0776112 C314.846441,17.3261189 315.047678,17.5253303 315.296861,17.5253303 C317.401748,17.5260056 317.538833,19.4087218 317.547612,19.6234649 Z M317.994655,16.1727189 C318.206697,16.5353511 318.503826,16.8716469 318.913054,17.118804 C318.5592,17.3315212 318.225606,17.6225724 317.978448,18.0115411 C317.757628,17.6455324 317.445642,17.3038342 317.022234,17.0492489 C317.390944,16.841934 317.736018,16.5562852 317.994655,16.1727189 Z M306.894193,30.4078904 C306.715916,30.2377166 306.434994,30.243119 306.260768,30.4166692 C305.819127,30.8583107 305.345747,31.0825079 304.850757,31.0825079 C303.995836,31.0825079 303.314466,30.4220716 303.307038,30.4159939 C303.307038,30.4153186 303.307038,30.4153186 303.307038,30.4153186 C303.126735,30.2370414 302.84041,30.2410931 302.664159,30.4173445 C302.485882,30.5956218 302.485882,30.8839718 302.664159,31.0622491 L302.666185,31.0649503 C304.040406,32.4411969 302.692521,33.966008 302.534503,34.1355065 C302.363654,34.3171603 302.370407,34.6021338 302.548684,34.7750088 C302.637823,34.8607709 302.751947,34.9039897 302.865396,34.9039897 C302.982897,34.9039897 303.099048,34.8594204 303.188186,34.7702817 C303.668995,34.2894733 304.186944,34.0463679 304.728529,34.0463679 C305.586826,34.0463679 306.256041,34.6541314 306.263469,34.6608843 C306.443097,34.8290322 306.728071,34.8209287 306.900946,34.6419761 C307.073146,34.4630235 307.071795,34.1807511 306.895544,34.0044997 C305.56184,32.66742 306.782094,31.2054112 306.923906,31.0426656 C307.086651,30.8576354 307.074496,30.5760383 306.894193,30.4078904 Z M305.430834,33.223186 C305.213389,33.167812 304.977037,33.1340473 304.727178,33.1340473 C304.502306,33.1340473 304.285537,33.1603837 304.072144,33.2137319 C304.185594,32.8031539 304.228812,32.3554348 304.137648,31.8975863 C304.540122,32.0069837 305.020931,32.0265672 305.459196,31.9218968 C305.357902,32.3263972 305.32954,32.7700645 305.430834,33.223186 Z M300.293881,18.9078718 C300.293881,18.9051706 300.293881,18.8828859 300.293881,18.8687048 C300.288479,18.5060726 300.145992,18.0738852 299.499737,18.0624052 C299.485556,18.0637558 299.462596,18.0617299 299.451791,18.0624052 C299.204634,18.0516005 299.01015,17.8449609 299.015552,17.5971285 C299.020955,17.3425431 299.236373,17.15076 299.490958,17.15076 C299.492984,17.15076 299.494335,17.15076 299.496361,17.15076 C299.861019,17.1473835 300.293881,16.9967932 300.293881,16.3046181 C300.293881,16.0581363 300.489716,15.8555484 300.736873,15.8487955 C301.007666,15.863652 301.19067,16.0331504 301.205527,16.278957 C301.214305,16.4261708 301.308846,17.1743952 302.095563,17.1743952 C302.346771,17.1743952 302.551385,17.3783336 302.551385,17.6302178 C302.551385,17.8814267 302.348122,18.0860405 302.095563,18.0860405 C301.953076,18.0887416 301.221058,18.138038 301.205527,18.8795095 C301.200124,19.1280172 300.996861,19.325878 300.749704,19.325878 L300.748353,19.325878 C300.5093,19.3252027 300.315491,19.1415231 300.295907,18.9092223 L300.293881,18.9092223 L300.293881,18.9078718 Z M292.352438,47.1517746 C292.352438,47.1497487 292.352438,47.12949 292.352438,47.1166594 C292.349062,46.751326 292.206575,46.3171128 291.558294,46.3056328 C291.544113,46.3056328 291.521153,46.3056328 291.510348,46.3056328 C291.263191,46.2948281 291.068707,46.0881885 291.074109,45.8403561 C291.079512,45.5857707 291.311137,45.4081687 291.549515,45.3939875 C291.551541,45.3939875 291.552892,45.3939875 291.554918,45.3939875 C291.919576,45.3906111 292.352438,45.2400208 292.352438,44.548521 C292.352438,44.3020391 292.548273,44.0994513 292.795431,44.0926984 C293.020303,44.0866207 293.249227,44.276378 293.264084,44.5228599 C293.272863,44.6693984 293.367403,45.4176228 294.15412,45.4176228 C294.405328,45.4176228 294.609942,45.6215612 294.609942,45.8734454 C294.609942,46.1246543 294.406679,46.329268 294.15412,46.329268 C294.011633,46.3319692 293.279615,46.3805903 293.264084,47.1254382 C293.258681,47.3739459 293.057444,47.572482 292.808261,47.572482 L292.80691,47.572482 C292.567857,47.5711314 292.372022,47.3867765 292.354464,47.1524499 L292.352438,47.1524499 L292.352438,47.1517746 Z M316.56236,34.8256557 C316.466468,34.9262743 316.007269,35.4496262 316.450261,35.9716275 C316.581943,36.0519874 316.669056,36.1958247 316.669056,36.3605962 C316.669056,36.6124804 316.464442,36.8164188 316.213233,36.8164188 C316.120718,36.8164188 316.033605,36.7887318 315.959998,36.740786 C315.92826,36.724579 315.897871,36.7049955 315.869509,36.6813602 L315.867483,36.6827108 C315.866133,36.6813602 315.849926,36.6651532 315.841147,36.6550238 C315.754034,36.5706122 315.189489,36.180293 314.704629,36.6496215 C314.528378,36.8231717 314.241378,36.8218211 314.065802,36.6435438 C313.894953,36.4726948 313.887525,36.1998765 314.046219,36.0209239 L314.044868,36.0202486 C314.046219,36.0195733 314.059049,36.0074181 314.066477,36.0006651 C314.275143,35.785922 314.543909,35.35441 314.030687,34.8418627 C313.855786,34.6676372 313.85241,34.3860401 314.021908,34.2064122 C314.190731,34.0254338 314.472328,34.0153044 314.657359,34.1807511 C314.657359,34.1807511 314.976097,34.4522188 315.343456,34.4522188 C315.54807,34.4522188 315.737152,34.3644308 315.918806,34.182777 C316.095057,34.0065256 316.383407,34.0038244 316.563035,34.1821017 C316.740637,34.3590284 316.740637,34.6473784 316.56236,34.8256557 Z M281.120969,30.6300617 L281.118943,30.6287112 C281.120969,30.6266853 281.136501,30.6111535 281.145955,30.6016994 C281.40054,30.3410364 281.603803,29.9338349 281.153383,29.4685582 C281.147981,29.4631558 281.140553,29.4557276 281.1338,29.44965 C281.128397,29.4422218 281.122995,29.4368194 281.119619,29.4347935 C280.952146,29.2517892 280.9616,28.9695168 281.141228,28.7986678 C281.315453,28.6257928 281.602453,28.6291693 281.778704,28.8040701 C281.782081,28.8094724 281.787483,28.8135242 281.792885,28.8189265 C281.792885,28.8196018 281.794911,28.8216277 281.796262,28.8229783 C281.842182,28.866197 282.07921,29.0849919 282.372962,29.0849919 C282.56542,29.0849919 282.762606,28.9843733 282.960467,28.7865125 C283.134692,28.6129622 283.414263,28.6109364 283.595917,28.778409 C283.774194,28.9472322 283.78635,29.2288292 283.622254,29.4131842 C283.526362,29.5246075 283.065137,30.1188651 283.616851,30.6759817 L283.618877,30.6766569 C283.618877,30.6773322 283.618877,30.6773322 283.618877,30.6773322 C283.797154,30.8556095 283.797154,31.1439595 283.618877,31.3222368 C283.529738,31.4113755 283.414263,31.4559448 283.296087,31.4559448 C283.180612,31.4559448 283.064462,31.4127261 282.975323,31.3242627 C282.82946,31.1871783 282.222372,30.8292731 281.784107,31.253357 C281.602453,31.4262319 281.319505,31.4208296 281.144604,31.2445782 C280.978482,31.0750797 280.969028,30.8090143 281.120969,30.6300617 Z" id="stars" transform="translate(301.000000, 26.286241) rotate(15.000000) translate(-301.000000, -26.286241) "></path>
                    </g>
                </g>
            </g>
        </g>
    </g>
</svg>