<?xml version="1.0" encoding="UTF-8"?>
<svg width="37px" height="37px" viewBox="0 0 37 37" version="1.1" xmlns="http://www.w3.org/2000/svg" xmlns:xlink="http://www.w3.org/1999/xlink">
    <!-- Generator: Sketch 55.1 (78136) - https://sketchapp.com -->
    <title>stars</title>
    <desc>Created with Sketch.</desc>
    <g id="Symbols" stroke="none" stroke-width="1" fill="none" fill-rule="evenodd">
        <g id="desktop/menu" transform="translate(-188.000000, -14.000000)" fill="#FFFFFF" fill-rule="nonzero">
            <g id="menu">
                <g id="Group-5">
                    <path d="M192.090488,21.7142526 C192.099672,21.9220402 192.270723,22.0862038 192.477937,22.0862038 C192.480807,22.0862038 192.482529,22.0862038 192.485399,22.0862038 C192.697205,22.0816118 192.865386,21.9105602 192.865386,21.6999026 C192.865386,20.0915578 194.477175,19.9469101 194.662003,19.9360041 C194.870938,19.9233762 195.032806,19.7465845 195.025344,19.5370749 C195.01903,19.3281393 194.847978,19.1616797 194.639617,19.1616797 C192.929674,19.1616797 192.867108,17.5671109 192.86596,17.3857272 C192.864238,17.1721997 192.692039,17 192.478511,17 C192.267853,17 192.095654,17.1687557 192.091062,17.3782652 C192.091062,19.0422879 190.362751,19.1484777 190.16587,19.1559397 C189.954064,19.1634017 189.787604,19.3384713 189.790438,19.5502769 C189.795066,19.7615085 189.966118,19.9308381 190.177924,19.9308381 C191.96593,19.9314121 192.082452,21.5317209 192.090488,21.7142526 Z M192.469901,18.7811184 C192.650137,19.0887818 192.902696,19.3752073 193.251113,19.5852908 C192.949764,19.7661005 192.666783,20.013494 192.456699,20.3441173 C192.269001,20.0330099 192.003814,19.7425665 191.643917,19.526169 C191.95732,19.3499513 192.250633,19.1071498 192.469901,18.7811184 Z M220.06547,29.4299452 C220.074654,29.6377328 220.245132,29.8018964 220.452919,29.8018964 C220.455789,29.8018964 220.457511,29.8018964 220.460381,29.8018964 C220.672187,29.7973044 220.840368,29.6262528 220.840368,29.4155952 C220.840368,27.8072504 222.452157,27.6631767 222.636411,27.6516967 C222.845346,27.6390687 223.007214,27.4622771 222.999752,27.2527675 C222.994012,27.0438319 222.82296,26.8773723 222.614025,26.8773723 C220.904082,26.8773723 220.84209,25.2828035 220.840368,25.1014198 C220.838646,24.8884662 220.665873,24.7156926 220.452919,24.7156926 C220.242262,24.7156926 220.070062,24.8844483 220.06547,25.0939578 C220.06547,26.7579805 218.337159,26.8647443 218.140278,26.8716323 C217.928472,26.8790943 217.762013,27.0541639 217.764846,27.2659695 C217.769474,27.4772011 217.940526,27.6465307 218.152332,27.6465307 C219.941486,27.6471047 220.058008,29.2474135 220.06547,29.4299452 Z M220.445457,26.496811 C220.625693,26.8050484 220.878252,27.0908998 221.226096,27.3009834 C220.92532,27.4817931 220.641765,27.7291866 220.431681,28.0598099 C220.243984,27.7487025 219.978796,27.4582591 219.618899,27.2418615 C219.932302,27.0656439 220.225616,26.8228424 220.445457,26.496811 Z M211.010064,38.5967069 C210.858528,38.4520591 210.619745,38.4566511 210.471653,38.6041688 C210.096258,38.9795641 209.693885,39.1701317 209.273143,39.1701317 C208.546461,39.1701317 207.967296,38.6087608 207.960982,38.6035948 C207.807724,38.4514851 207.564349,38.4549291 207.414535,38.6047428 C207.262999,38.7562785 207.262999,39.0013761 207.414535,39.1529117 L207.416257,39.1552077 C208.584345,40.3250174 207.438643,41.6211068 207.304327,41.7651805 C207.159106,41.9195862 207.164846,42.1618137 207.316381,42.3087574 C207.392149,42.3816553 207.489155,42.4183912 207.585587,42.4183912 C207.685463,42.4183912 207.78419,42.3805073 207.859958,42.3047395 C208.268645,41.8960523 208.708903,41.6894127 209.16925,41.6894127 C209.898802,41.6894127 210.467635,42.2060116 210.473949,42.2117516 C210.626633,42.3546774 210.86886,42.3477894 211.015804,42.1956797 C211.162174,42.04357 211.161026,41.8036385 211.011212,41.6538248 C209.877564,40.517307 210.91478,39.2745995 211.03532,39.1362658 C211.173654,38.9789901 211.163322,38.7396326 211.010064,38.5967069 Z M209.766208,40.9897081 C209.581381,40.9426402 209.380481,40.9139402 209.168102,40.9139402 C208.97696,40.9139402 208.792706,40.9363262 208.611323,40.9816721 C208.707755,40.6326808 208.744491,40.2521196 208.667001,39.8629483 C209.009104,39.9559361 209.417791,39.9725821 209.790316,39.8836123 C209.704217,40.2274376 209.680109,40.6045548 209.766208,40.9897081 Z M205.399799,28.7883991 C205.395207,28.4801617 205.274093,28.1128024 204.724777,28.1030444 C204.712723,28.1041924 204.693207,28.1024704 204.684023,28.1030444 C204.473939,28.0938604 204.308627,27.9182168 204.313219,27.7075592 C204.317811,27.4911616 204.500917,27.328146 204.717315,27.328146 C205.031866,27.325276 205.399799,27.1972742 205.399799,26.6089254 C205.399799,26.3994158 205.566259,26.2272162 205.776342,26.2214762 C206.006516,26.2341042 206.16207,26.3781779 206.174698,26.5871135 C206.18216,26.7122452 206.262519,27.3482359 206.931228,27.3482359 C207.144756,27.3482359 207.318677,27.5215836 207.318677,27.7356852 C207.318677,27.9492127 207.145904,28.1231344 206.931228,28.1231344 C206.810114,28.1254304 206.1879,28.1673323 206.174698,28.797583 C206.170106,29.0088146 205.997332,29.1769963 205.787248,29.1769963 C205.582905,29.1764223 205.418167,29.0202946 205.401521,28.822839 C205.399799,28.819395 205.399799,28.800453 205.399799,28.7883991 Z M198.649573,52.7991605 C198.646703,52.4886271 198.525589,52.1195458 197.97455,52.1097879 C197.962496,52.1097879 197.94298,52.1097879 197.933796,52.1097879 C197.723713,52.1006039 197.558401,51.9249602 197.562993,51.7143027 C197.567585,51.4979051 197.764466,51.3469434 197.967088,51.3348894 C198.281639,51.3320194 198.649573,51.2040177 198.649573,50.6162429 C198.649573,50.4067333 198.816032,50.2345336 199.026116,50.2287936 C199.217258,50.2236276 199.411843,50.3849213 199.424471,50.5944309 C199.431933,50.7189886 199.512293,51.3549794 200.181002,51.3549794 C200.394529,51.3549794 200.568451,51.528327 200.568451,51.7424286 C200.568451,51.9559562 200.395677,52.1298778 200.181002,52.1298778 C200.059888,52.1321738 199.437673,52.1735017 199.424471,52.8066225 C199.419879,53.0178541 199.248827,53.1866097 199.037022,53.1866097 C198.832678,53.1854617 198.666219,53.02876 198.651295,52.8295824 C198.649573,52.8272864 198.649573,52.8100665 198.649573,52.7991605 Z M219.228006,42.3518074 C219.146498,42.4373332 218.756179,42.8821823 219.132722,43.3258834 C219.244652,43.3941893 219.318697,43.516451 219.318697,43.6565068 C219.318697,43.8706083 219.144776,44.043956 218.931248,44.043956 C218.85261,44.043956 218.778564,44.020422 218.715999,43.9796681 C218.689021,43.9658921 218.663191,43.9492462 218.639083,43.9291562 C218.636213,43.9291562 218.622437,43.9153802 218.614975,43.9067703 C218.540929,43.8350204 218.061066,43.5032491 217.648935,43.9021783 C217.499121,44.049696 217.255172,44.048548 217.105932,43.8970123 C216.96071,43.7517906 216.954396,43.519895 217.089286,43.3677853 C217.089286,43.3666373 217.100192,43.3563054 217.106506,43.3505654 C217.283871,43.1680337 217.512323,42.8012485 217.076084,42.3655833 C216.927418,42.2174916 216.924548,41.9781341 217.068622,41.8254504 C217.212122,41.6716187 217.451479,41.6630087 217.608755,41.8036385 C217.608755,41.8036385 217.879682,42.034386 218.191938,42.034386 C218.365859,42.034386 218.526579,41.9597661 218.680985,41.8053605 C218.830798,41.6555467 219.075896,41.6532508 219.22858,41.8047865 C219.379541,41.9551742 219.379541,42.2002717 219.228006,42.3518074 Z M189.102824,38.7855525 L189.101102,38.7844045 C189.102824,38.7826825 189.116026,38.7694805 189.124062,38.7614445 C189.340459,38.539881 189.513233,38.1937597 189.130376,37.7982745 C189.125784,37.7936825 189.11947,37.7873685 189.11373,37.7822025 C189.109138,37.7758885 189.104546,37.7712965 189.101676,37.7695745 C188.959324,37.6140208 188.96736,37.3740893 189.120044,37.2288676 C189.268135,37.0819239 189.512085,37.0847939 189.661899,37.2334596 C189.664769,37.2380516 189.669361,37.2414956 189.673953,37.2460876 C189.673953,37.2466616 189.675675,37.2483836 189.676823,37.2495316 C189.715855,37.2862675 189.917328,37.4722431 190.167018,37.4722431 C190.330607,37.4722431 190.498215,37.3867173 190.666397,37.2185356 C190.814488,37.0710179 191.052124,37.0692959 191.20653,37.2116476 C191.358065,37.3551473 191.368397,37.5945049 191.228916,37.7512065 C191.147408,37.8459164 190.755366,38.3510354 191.224324,38.8245844 C191.377581,38.9772681 191.377581,39.2223656 191.226046,39.3739013 C191.150278,39.4496692 191.052124,39.4875531 190.951674,39.4875531 C190.85352,39.4875531 190.754792,39.4508172 190.679025,39.3756233 C190.555041,39.2591015 190.039016,38.9548821 189.666491,39.3153534 C189.512085,39.4622971 189.271579,39.4577051 189.122914,39.3078914 C188.98171,39.1638177 188.973674,38.9376622 189.102824,38.7855525 Z" id="stars" transform="translate(206.000000, 35.093305) rotate(15.000000) translate(-206.000000, -35.093305) "></path>
                </g>
            </g>
        </g>
    </g>
</svg>