<?xml version="1.0" encoding="UTF-8"?>
<svg width="33px" height="33px" viewBox="0 0 33 33" version="1.1" xmlns="http://www.w3.org/2000/svg" xmlns:xlink="http://www.w3.org/1999/xlink">
    <!-- Generator: Sketch 55.1 (78136) - https://sketchapp.com -->
    <title>stars</title>
    <desc>Created with Sketch.</desc>
    <g id="Symbols" stroke="none" stroke-width="1" fill="none" fill-rule="evenodd">
        <g id="mobile/menu" transform="translate(-69.000000, -8.000000)" fill="#D4D4D4" fill-rule="nonzero">
            <g id="Group-4" transform="translate(-1.000000, 0.000000)">
                <g id="Group-5" transform="translate(25.000000, 7.000000)">
                    <path d="M48.726901,8.15963463 C48.7350045,8.34297662 48.8859324,8.48782692 49.068768,8.48782692 C49.0713003,8.48782692 49.0728197,8.48782692 49.0753521,8.48782692 C49.2622393,8.48377516 49.4106349,8.33284723 49.4106349,8.14697289 C49.4106349,6.72784514 50.8328015,6.60021481 50.9958847,6.59059188 C51.1802396,6.57944955 51.323064,6.42345692 51.3164799,6.23859553 C51.3109088,6.0542406 51.1599808,5.90736443 50.9761324,5.90736443 C49.4673595,5.90736443 49.4121543,4.50039194 49.4111414,4.34034756 C49.409622,4.15194087 49.2576811,4 49.0692744,4 C48.8834001,4 48.7314592,4.14890206 48.7274075,4.33376345 C48.7274075,5.80201875 47.2024276,5.89571562 47.0287085,5.90229973 C46.8418212,5.90888383 46.6949451,6.06335705 46.6974451,6.25024433 C46.7015292,6.43662513 46.8524571,6.58603366 47.0393444,6.58603366 C48.6169971,6.58654013 48.7198104,7.99857731 48.726901,8.15963463 Z M49.0616774,5.5715751 C49.2207088,5.84304279 49.4435554,6.09577111 49.7509825,6.28113897 C49.485086,6.44067689 49.2353964,6.65896528 49.0500286,6.95069175 C48.884413,6.67618524 48.6504241,6.41991164 48.3328677,6.22897261 C48.6094001,6.07348645 48.868206,5.85924982 49.0616774,5.5715751 Z M73.4107087,14.9675987 C73.4188123,15.1509407 73.5692337,15.295791 73.7525757,15.295791 C73.7551081,15.295791 73.7566275,15.295791 73.7591598,15.295791 C73.9460471,15.2917392 74.0944427,15.1408113 74.0944427,14.9549369 C74.0944427,13.5358092 75.5166092,13.4086853 75.679186,13.3985559 C75.8635409,13.3874136 76.0063653,13.231421 75.9997812,13.0465596 C75.9947165,12.8622047 75.8437886,12.7153285 75.6594337,12.7153285 C74.1506608,12.7153285 74.0959621,11.308356 74.0944427,11.1483116 C74.0929233,10.9604114 73.9404759,10.807964 73.7525757,10.807964 C73.5667014,10.807964 73.4147605,10.9568661 73.4107087,11.1417275 C73.4107087,12.6099828 71.8857289,12.7041861 71.7120098,12.7102638 C71.5251225,12.7168479 71.3782463,12.8713211 71.3807464,13.0582084 C71.3848304,13.2445892 71.5357584,13.3939977 71.7226456,13.3939977 C73.3013113,13.3945042 73.4041246,14.8065414 73.4107087,14.9675987 Z M73.7459916,12.3795391 C73.9050231,12.6515133 74.1278697,12.9037352 74.4347902,13.089103 C74.1694002,13.2486409 73.9192042,13.4669293 73.7338363,13.7586558 C73.5682208,13.4841493 73.3342318,13.2278757 73.0166754,13.0369367 C73.2932078,12.8814505 73.5520138,12.6672139 73.7459916,12.3795391 Z M65.4206447,23.0559178 C65.2869367,22.9282875 65.0762454,22.9323392 64.9455762,23.0625019 C64.6143451,23.393733 64.25931,23.5618809 63.8880678,23.5618809 C63.2468773,23.5618809 62.7358495,23.0665537 62.7302783,23.0619955 C62.5950509,22.927781 62.3803078,22.9308198 62.2481193,23.0630084 C62.1144113,23.1967164 62.1144113,23.4129789 62.2481193,23.5466868 L62.2496387,23.5487127 C63.2803043,24.5808977 62.269391,25.724506 62.1508771,25.8516299 C62.0227403,25.9878702 62.027805,26.2016004 62.161513,26.3312566 C62.228367,26.3955782 62.3139603,26.4279923 62.3990472,26.4279923 C62.4871729,26.4279923 62.5742857,26.3945653 62.6411397,26.3277113 C63.001746,25.9671049 63.3902082,25.7847759 63.7963968,25.7847759 C64.4401196,25.7847759 64.942031,26.2405985 64.9476021,26.2456632 C65.082323,26.3717741 65.2960532,26.3656965 65.4257094,26.2314821 C65.5548591,26.0972676 65.5538462,25.8855633 65.4216576,25.7533748 C64.4213802,24.750565 65.3365708,23.6540584 65.4429294,23.5319992 C65.5649885,23.3932266 65.5558721,23.1820287 65.4206447,23.0559178 Z M64.3231251,25.1673895 C64.1600419,25.125859 63.9827776,25.1005355 63.7953838,25.1005355 C63.6267295,25.1005355 63.4641527,25.1202878 63.3041083,25.1602989 C63.3891952,24.8523654 63.4216093,24.5165761 63.3532359,24.1731897 C63.6550918,24.2552378 64.0156981,24.2699254 64.3443969,24.1914226 C64.2684264,24.4947979 64.2471547,24.8275484 64.3231251,25.1673895 Z M60.4704111,14.4015286 C60.4663593,14.1295544 60.3594942,13.8054139 59.8748028,13.7968039 C59.864167,13.7978168 59.846947,13.7962974 59.8388435,13.7968039 C59.6534756,13.7887004 59.5076124,13.6337207 59.5116642,13.4478464 C59.5157159,13.2569073 59.6772797,13.11307 59.8682187,13.11307 C60.1457641,13.1105376 60.4704111,12.9975949 60.4704111,12.4784636 C60.4704111,12.2936022 60.6172872,12.1416613 60.8026551,12.1365966 C61.0057494,12.147739 61.1430027,12.2748628 61.154145,12.4592178 C61.1607291,12.5696281 61.2316348,13.1307964 61.8216719,13.1307964 C62.0100786,13.1307964 62.1635389,13.2837502 62.1635389,13.4726634 C62.1635389,13.6610701 62.0110915,13.8145303 61.8216719,13.8145303 C61.7148068,13.8165562 61.1657938,13.8535285 61.154145,14.4096321 C61.1500932,14.5960129 60.9976459,14.7444085 60.812278,14.7444085 C60.6319749,14.743902 60.4866181,14.6061423 60.4719305,14.4319168 C60.4704111,14.4288779 60.4704111,14.4121644 60.4704111,14.4015286 Z M54.5143288,35.5874945 C54.5117965,35.3134945 54.4049314,34.9878346 53.9187206,34.9792246 C53.9080848,34.9792246 53.8908648,34.9792246 53.8827613,34.9792246 C53.6973934,34.9711211 53.5515302,34.8161414 53.5555819,34.630267 C53.5596337,34.439328 53.7333528,34.3061265 53.9121365,34.2954907 C54.1896818,34.2929583 54.5143288,34.1800156 54.5143288,33.6613908 C54.5143288,33.4765294 54.661205,33.3245885 54.8465729,33.3195238 C55.0152273,33.3149656 55.1869204,33.4572835 55.1980628,33.6421449 C55.2046469,33.7520488 55.2755526,34.3132171 55.8655897,34.3132171 C56.0539964,34.3132171 56.2074566,34.4661709 56.2074566,34.6550841 C56.2074566,34.8434907 56.0550093,34.996951 55.8655897,34.996951 C55.7587246,34.9989769 55.2097116,35.0354427 55.1980628,35.5940787 C55.194011,35.7804595 55.0430831,35.9293615 54.8561958,35.9293615 C54.6758926,35.9283486 54.5290165,35.7900824 54.5158483,35.6143374 C54.5143288,35.6123116 54.5143288,35.5971175 54.5143288,35.5874945 Z M72.6717696,26.3692418 C72.599851,26.4447058 72.2554516,26.8372197 72.5876957,27.2287207 C72.6864573,27.2889905 72.7517918,27.3968686 72.7517918,27.5204471 C72.7517918,27.7093603 72.5983315,27.8623141 72.4099249,27.8623141 C72.3405385,27.8623141 72.275204,27.8415488 72.2199988,27.8055895 C72.1961947,27.7934342 72.1734036,27.7787466 72.1521318,27.7610202 C72.1495995,27.7610202 72.1374442,27.7488649 72.1308601,27.7412679 C72.0655256,27.6779592 71.642117,27.3852198 71.2784718,27.7372161 C71.1462833,27.8673788 70.9310337,27.8663659 70.7993516,27.7326579 C70.6712148,27.6045211 70.6656436,27.3999074 70.784664,27.2656929 C70.784664,27.26468 70.7942869,27.2555635 70.7998581,27.2504989 C70.9563572,27.0894415 71.1579321,26.7658075 70.7730152,26.3813971 C70.6418396,26.2507279 70.6393072,26.0395301 70.7664311,25.9048092 C70.8930485,25.7690753 71.1042463,25.7614783 71.243019,25.8855633 C71.243019,25.8855633 71.4820726,26.0891641 71.757592,26.0891641 C71.9110523,26.0891641 72.0528638,26.0233231 72.1891041,25.8870828 C72.3212927,25.7548942 72.5375552,25.7528683 72.6722761,25.8865763 C72.8054776,26.0192713 72.8054776,26.2355338 72.6717696,26.3692418 Z M46.0907268,23.2225463 L46.0892074,23.2215334 C46.0907268,23.220014 46.1023756,23.2083652 46.1094662,23.2012746 C46.3004053,23.0057773 46.4528526,22.7003762 46.1150374,22.3514186 C46.1109856,22.3473669 46.1054145,22.3417957 46.1003498,22.3372375 C46.096298,22.3316663 46.0922463,22.3276146 46.0897139,22.3260952 C45.9641095,22.1888419 45.9712,21.9771376 46.1059209,21.8490008 C46.2365901,21.7193446 46.4518397,21.721877 46.5840282,21.8530526 C46.5865606,21.8571043 46.5906123,21.8601431 46.5946641,21.8641949 C46.5946641,21.8647014 46.5961835,21.8662208 46.5971964,21.8672337 C46.6316364,21.8996478 46.8094072,22.0637439 47.0297214,22.0637439 C47.1740653,22.0637439 47.3219544,21.9882799 47.47035,21.8398844 C47.6010191,21.7097217 47.8106975,21.7082023 47.9469378,21.8338067 C48.0806458,21.9604241 48.0897623,22.1716219 47.9666902,22.3098881 C47.8947715,22.3934556 47.5488528,22.8391488 47.9626384,23.2569862 C48.0978658,23.3917071 48.0978658,23.6079697 47.9641578,23.7416776 C47.8973038,23.8085316 47.8106975,23.8419586 47.7220654,23.8419586 C47.6354591,23.8419586 47.5483463,23.8095445 47.4814923,23.743197 C47.3720949,23.6403837 46.9167787,23.3719548 46.58808,23.6900177 C46.4518397,23.8196739 46.2396289,23.8156222 46.1084533,23.6834336 C45.9838618,23.5563098 45.9767712,23.3567607 46.0907268,23.2225463 Z" id="stars" transform="translate(61.000000, 19.964681) rotate(15.000000) translate(-61.000000, -19.964681) "></path>
                </g>
            </g>
        </g>
    </g>
</svg>