<?xml version="1.0" encoding="UTF-8"?>
<svg width="19px" height="20px" viewBox="0 0 19 20" version="1.1" xmlns="http://www.w3.org/2000/svg" xmlns:xlink="http://www.w3.org/1999/xlink">
    <!-- Generator: Sketch 59 (86127) - https://sketch.com -->
    <title>tech</title>
    <desc>Created with Sketch.</desc>
    <g id="Tripbee" stroke="none" stroke-width="1" fill="none" fill-rule="evenodd">
        <g id="Artboard" transform="translate(-96.000000, -102.000000)" fill="#29424C" fill-rule="nonzero">
            <path d="M101.785972,102.001186 C101.785972,102.001186 109.252516,101.977177 109.780696,102.145235 C112.181514,102.841472 114.054152,106.898854 114.030144,112.012597 C114.030144,117.606503 111.773375,122 108.892393,122 L108.892393,122 L101.761963,122 C100.273456,122 98.928998,120.847607 97.9446626,118.734887 L97.9446626,118.734887 L97.9206544,118.662863 C96.79227,118.134683 96,116.98229 96,115.637832 L96,115.637832 L96,108.915542 C96,107.691124 96.6482209,106.634764 97.6325563,106.058568 C98.6168917,103.561717 100.201432,102.001186 101.785972,102.001186 Z M105.147117,118.83092 C104.907035,118.902945 104.642945,118.926953 104.378855,118.926953 L104.378855,118.926953 L99.1450717,118.926953 C99.9133334,120.271411 100.849652,121.015665 101.785972,121.015665 L101.785972,121.015665 L101.785972,120.991656 L106.659632,120.991656 C106.107444,120.487485 105.579264,119.743231 105.147117,118.83092 Z M108.940409,102.961513 C107.788017,102.961513 106.659632,104.065889 105.867362,105.938527 C106.707649,106.346666 107.331861,107.09092 107.595951,108.003231 L107.595951,108.003231 L108.316197,108.003231 C108.868385,108.003231 109.32454,108.459386 109.32454,109.011574 L109.32454,109.011574 L109.32454,111.556441 C109.32454,112.10863 108.868385,112.564785 108.316197,112.564785 L108.316197,112.564785 L107.715992,112.564785 L107.715992,115.613824 C107.715992,116.814233 107.043763,117.894601 106.059428,118.470797 C106.15546,118.638855 106.227485,118.806912 106.323518,118.950961 C106.371534,118.926953 106.41955,118.926953 106.467567,118.926953 L106.467567,118.926953 L107.427894,118.926953 C107.691984,118.926953 107.908058,119.143027 107.908058,119.407116 C107.908058,119.671206 107.691984,119.88728 107.427894,119.88728 L107.427894,119.88728 L106.94773,119.88728 C107.547935,120.631534 108.220164,121.015665 108.916401,121.015665 C111.197178,121.015665 113.117833,116.886258 113.117833,111.988589 C113.117833,107.09092 111.197178,102.961513 108.940409,102.961513 Z M109.32454,117.030307 C109.58863,117.030307 109.804704,117.24638 109.804704,117.51047 C109.804704,117.77456 109.58863,117.990634 109.32454,117.990634 L109.32454,117.990634 L108.364213,117.990634 C108.100123,117.990634 107.884049,117.77456 107.884049,117.51047 C107.884049,117.24638 108.100123,117.030307 108.364213,117.030307 L108.364213,117.030307 Z M104.378855,106.538732 L99.3131289,106.538732 C98.0166872,106.538732 96.9603272,107.595092 96.9603272,108.891533 L96.9603272,108.891533 L96.9603272,115.613824 C96.9603272,116.934274 98.0166872,117.990634 99.3371371,117.966626 L99.3371371,117.966626 L104.378855,117.966626 C105.675297,117.966626 106.731657,116.910266 106.731657,115.613824 L106.731657,115.613824 L106.731657,108.891533 C106.731657,107.595092 105.675297,106.538732 104.378855,106.538732 L104.378855,106.538732 Z M98.3768099,113.16499 C98.6408999,113.16499 98.8569735,113.381063 98.8569735,113.645153 L98.8569735,113.645153 L98.8569735,115.469775 C98.8569735,115.733865 98.6408999,115.949938 98.3768099,115.949938 C98.1127199,115.949938 97.8966463,115.733865 97.8966463,115.469775 L97.8966463,115.469775 L97.8966463,113.645153 C97.8966463,113.381063 98.1127199,113.16499 98.3768099,113.16499 Z M109.924745,114.749529 C110.188835,114.749529 110.404908,114.965603 110.404908,115.229693 C110.404908,115.493783 110.188835,115.709857 109.924745,115.709857 L109.924745,115.709857 L108.964418,115.709857 C108.700328,115.709857 108.484254,115.493783 108.484254,115.229693 C108.484254,114.965603 108.700328,114.749529 108.964418,114.749529 L108.964418,114.749529 Z M105.459223,108.051247 C105.723313,108.051247 105.939387,108.267321 105.939387,108.531411 L105.939387,108.531411 L105.939387,114.773538 C105.939387,115.037628 105.723313,115.253701 105.459223,115.253701 C105.195133,115.253701 104.97906,115.037628 104.97906,114.773538 L104.97906,114.773538 L104.97906,108.531411 C104.97906,108.267321 105.195133,108.051247 105.459223,108.051247 Z M108.316197,108.963558 L107.715992,108.963558 L107.715992,111.604458 L108.316197,111.604458 C108.340205,111.604458 108.364213,111.58045 108.364213,111.556441 L108.364213,111.556441 L108.364213,109.011574 C108.364213,108.987566 108.340205,108.963558 108.316197,108.963558 L108.316197,108.963558 Z M106.68364,102.961513 L101.785972,102.961513 C100.777628,102.961513 99.6732516,103.969856 98.8809817,105.602413 C99.0250308,105.578404 99.193088,105.578404 99.3371371,105.578404 L99.3371371,105.578404 L104.378855,105.578404 C104.57092,105.578404 104.762986,105.602413 104.931043,105.626421 C105.411207,104.474028 106.011411,103.585726 106.68364,102.961513 L106.68364,102.961513 Z" id="tech"></path>
        </g>
    </g>
</svg>