<?xml version="1.0" encoding="UTF-8"?>
<svg width="24px" height="24px" viewBox="0 0 24 24" version="1.1" xmlns="http://www.w3.org/2000/svg" xmlns:xlink="http://www.w3.org/1999/xlink">
    <!-- Generator: Sketch 59 (86127) - https://sketch.com -->
    <title>travel</title>
    <desc>Created with Sketch.</desc>
    <g id="Tripbee" stroke="none" stroke-width="1" fill="none" fill-rule="evenodd">
        <g id="Artboard" transform="translate(-112.000000, -37.000000)" fill="#29424C" fill-rule="nonzero">
            <path d="M132.960753,37.0001332 C132.195416,36.992824 131.424372,37.2864152 130.84501,37.8658025 L126.584673,42.1646072 L115.226981,39.1737163 C115.016286,39.1208884 114.793346,39.1830193 114.640344,39.3372055 L112.486133,41.4914163 C112.35932,41.6192208 112.294819,41.7961385 112.309618,41.975572 C112.324416,42.1550054 112.417031,42.3189651 112.563069,42.4242665 L120.631742,48.1848571 L116.977278,52.3586406 L113.899834,52.0797472 C113.717302,52.0646533 113.537529,52.1316275 113.409366,52.2624705 L112.178388,53.4934481 C112.047412,53.6255794 111.983223,53.8098603 112.003769,53.9947694 C112.024314,54.1796786 112.127389,54.3453747 112.284175,54.4455323 L115.611662,56.5612751 L116.438725,57.3883382 L118.554468,60.7158246 C118.654625,60.8726109 118.820321,60.9756857 119.005231,60.9962311 C119.19014,61.0167766 119.374421,60.9525882 119.506552,60.8216117 L120.73753,59.5906341 C120.868372,59.462471 120.935347,59.2826982 120.920253,59.1001665 L120.641359,56.0227224 L124.815143,52.3682576 L130.575733,60.4369312 C130.681035,60.5829688 130.844995,60.6755835 131.024428,60.6903822 C131.203861,60.7051808 131.380779,60.6406797 131.508584,60.5138673 L133.662795,58.3596565 C133.816981,58.206654 133.879112,57.9837137 133.826284,57.7730187 L130.835393,46.4153268 L135.134197,42.1549902 C136.289378,40.9998592 136.276825,39.1045507 135.086112,37.9138876 C134.49117,37.3189192 133.72665,37.0077188 132.960753,37.0001332 Z M132.941519,38.2311637 C133.38969,38.235619 133.847581,38.4064048 134.220581,38.7794187 C134.965834,39.5246403 134.954997,40.6031582 134.268666,41.289459 L129.719819,45.799838 C129.565633,45.9528405 129.503502,46.1757808 129.55633,46.3864757 L132.547221,57.7441677 L131.152754,59.1386345 L125.421015,51.108429 C125.320045,50.9676697 125.164438,50.8759704 124.992384,50.8558364 C124.82033,50.8357024 124.647756,50.8889975 124.517015,51.0026418 L119.593105,55.3110635 C119.443247,55.4401285 119.364532,55.6333387 119.381531,55.8303822 L119.660424,58.9366773 L119.179573,59.4175279 L117.438894,56.6766793 C117.41406,56.6383131 117.38503,56.6028321 117.352341,56.5708921 L116.429108,55.6476589 C116.397168,55.6149702 116.361687,55.5859402 116.323321,55.5611058 L113.582472,53.8204265 L114.063323,53.3395759 L117.169618,53.6184693 C117.366661,53.6354679 117.559872,53.5567526 117.688937,53.406895 L121.997358,48.4829845 C122.111002,48.3522443 122.164298,48.1796701 122.144164,48.0076159 C122.12403,47.8355617 122.03233,47.6799549 121.891571,47.5789853 L113.861365,41.8472458 L115.255832,40.4527789 L126.613524,43.4436699 C126.824219,43.4964978 127.04716,43.4343669 127.200162,43.2801807 L131.710541,38.7313337 C132.051894,38.3899651 132.492786,38.2268852 132.941519,38.2311637 Z" id="travel"></path>
        </g>
    </g>
</svg>